name: Courier
spacing: character-cell
cell-size: 15 25
family: Courier
font-id: 416
point-size: 12
setwidth: medium
dpi: 120 120
ascent: 16
descent: 5
line-height: 25
encoding: ibm-ugl
default-char: 0x20
word-boundary: 0x20
underline-thickness: 2
underline-descent: 2
superscript-size: 15
subscript-size: 15
superscript-offset: 0 10
subscript-offset: 0 4
converter: monobit v0.33
source-name: COURIER.FON
source-format: [OS/2 LX] OS/2 GPI
history: load -format=fon
shift-up: -5

u+263a:
0x01:
    ...............
    ...............
    ...............
    ...............
    ...............
    .....@@@@@.....
    ...@@@...@@@...
    ..@@.......@@..
    .@@...@.@...@@.
    .@....@.@....@.
    @@...........@@
    @..@.......@..@
    @.@@.......@@.@
    @...@.....@...@
    @@...@...@...@@
    .@....@@@....@.
    .@@.........@@.
    ..@@.......@@..
    ...@@@...@@@...
    .....@@@@@.....
    ...............
    ...............
    ...............
    ...............
    ...............

u+263b:
0x02:
    ...............
    ...............
    ...............
    ...............
    ...............
    .....@@@@@.....
    ...@@@@@@@@@...
    ..@@@@@@@@@@@..
    .@@@@@.@.@@@@@.
    .@@@@@.@.@@@@@.
    @@@@@@@@@@@@@@@
    @@@.@@@@@@@.@@@
    @@..@@@@@@@..@@
    @@@@.@@@@@.@@@@
    @@@@@.@@@.@@@@@
    .@@@@@...@@@@@.
    .@@@@@@@@@@@@@.
    ..@@@@@@@@@@@..
    ...@@@@@@@@@...
    .....@@@@@.....
    ...............
    ...............
    ...............
    ...............
    ...............

u+2665:
0x03:
    ...............
    ...............
    ...............
    ...............
    ...............
    ...............
    ..@@@....@@@...
    .@@@@@..@@@@@..
    @@@@@@..@@@@@@.
    @@@@@@@@@@@@@@.
    @@@@@@@@@@@@@@.
    @@@@@@@@@@@@@@.
    .@@@@@@@@@@@@..
    ..@@@@@@@@@@...
    ..@@@@@@@@@@...
    ...@@@@@@@@....
    ....@@@@@@.....
    .....@@@@......
    .....@@@@......
    ......@@.......
    ...............
    ...............
    ...............
    ...............
    ...............

u+2666:
0x04:
    ...............
    ...............
    ...............
    ...............
    ...............
    ...............
    .......@.......
    ......@@@......
    .....@@@@@.....
    ....@@@@@@@....
    ...@@@@@@@@@...
    ..@@@@@@@@@@@..
    .@@@@@@@@@@@@@.
    .@@@@@@@@@@@@@.
    ..@@@@@@@@@@@..
    ...@@@@@@@@@...
    ....@@@@@@@....
    .....@@@@@.....
    ......@@@......
    .......@.......
    ...............
    ...............
    ...............
    ...............
    ...............

u+2663:
0x05:
    ...............
    ...............
    ...............
    ...............
    ...............
    ...............
    .....@@@@@.....
    ....@@@@@@@....
    ....@@@@@@@....
    ....@@@@@@@....
    .....@@@@@.....
    .@@@..@@@..@@@.
    @@@@@@@@@@@@@@@
    @@@@@@@@@@@@@@@
    @@@@@@@@@@@@@@@
    @@@@@..@..@@@@@
    .@@@...@...@@@.
    .......@.......
    ......@@@......
    ......@@@......
    ...............
    ...............
    ...............
    ...............
    ...............

u+2660:
0x06:
    ...............
    ...............
    ...............
    ...............
    ...............
    ...............
    .......@.......
    ......@@@......
    ......@@@......
    .....@@@@@.....
    ....@@@@@@@....
    ....@@@@@@@....
    ...@@@@@@@@@...
    ..@@@@@@@@@@@..
    ..@@@@@@@@@@@..
    .@@@@@.@.@@@@@.
    .@@@@@.@.@@@@@.
    ..@@@..@..@@@..
    ......@@@......
    ......@@@......
    ...............
    ...............
    ...............
    ...............
    ...............

u+2022:
0x07:
    ...............
    ...............
    ...............
    ...............
    ...............
    ...............
    ...............
    ......@@@......
    ....@@@@@@@....
    ...@@@@@@@@@...
    ...@@@@@@@@@...
    ..@@@@@@@@@@@..
    ..@@@@@@@@@@@..
    ..@@@@@@@@@@@..
    ...@@@@@@@@@...
    ...@@@@@@@@@...
    ....@@@@@@@....
    ......@@@......
    ...............
    ...............
    ...............
    ...............
    ...............
    ...............
    ...............

u+25d8:
0x08:
    @@@@@@@@@@@@@@@
    @@@@@@@@@@@@@@@
    @@@@@@@@@@@@@@@
    @@@@@@@@@@@@@@@
    @@@@@@@@@@@@@@@
    @@@@@@@@@@@@@@@
    @@@@@@@@@@@@@@@
    @@@@@@...@@@@@@
    @@@@.......@@@@
    @@@.........@@@
    @@@.........@@@
    @@...........@@
    @@...........@@
    @@...........@@
    @@@.........@@@
    @@@.........@@@
    @@@@.......@@@@
    @@@@@@...@@@@@@
    @@@@@@@@@@@@@@@
    @@@@@@@@@@@@@@@
    @@@@@@@@@@@@@@@
    @@@@@@@@@@@@@@@
    @@@@@@@@@@@@@@@
    @@@@@@@@@@@@@@@
    @@@@@@@@@@@@@@@

u+25cb:
0x09:
    ...............
    ...............
    ...............
    ...............
    ...............
    ...............
    .....@@@@@.....
    ...@@@...@@@...
    ..@@.......@@..
    ..@.........@..
    .@@.........@@.
    .@...........@.
    .@...........@.
    .@...........@.
    .@@.........@@.
    ..@.........@..
    ..@@.......@@..
    ...@@@...@@@...
    .....@@@@@.....
    ...............
    ...............
    ...............
    ...............
    ...............
    ...............

u+25d9:
0x0a:
    @@@@@@@@@@@@@@@
    @@@@@@@@@@@@@@@
    @@@@@@@@@@@@@@@
    @@@@@@@@@@@@@@@
    @@@@@@@@@@@@@@@
    @@@@@@@@@@@@@@@
    @@@@@.....@@@@@
    @@@...@@@...@@@
    @@..@@@@@@@..@@
    @@.@@@@@@@@@.@@
    @..@@@@@@@@@..@
    @.@@@@@@@@@@@.@
    @.@@@@@@@@@@@.@
    @.@@@@@@@@@@@.@
    @..@@@@@@@@@..@
    @@.@@@@@@@@@.@@
    @@..@@@@@@@..@@
    @@@...@@@...@@@
    @@@@@.....@@@@@
    @@@@@@@@@@@@@@@
    @@@@@@@@@@@@@@@
    @@@@@@@@@@@@@@@
    @@@@@@@@@@@@@@@
    @@@@@@@@@@@@@@@
    @@@@@@@@@@@@@@@

u+2642:
0x0b:
    ...............
    ..........@....
    .......@@@@....
    .....@@@.@@@...
    .........@.@@..
    .........@..@..
    ........@@..@@.
    ........@......
    .......@@......
    .......@.......
    ....@@@@.......
    ..@@@..@@@.....
    .@@......@@....
    .@........@....
    @@........@@...
    @..........@...
    @@........@@...
    .@........@....
    .@@......@@....
    ..@@@..@@@.....
    ....@@@@.......
    ...............
    ...............
    ...............
    ...............

u+2640:
0x0c:
    ...............
    .....@@@@......
    ...@@@..@@@....
    ..@@......@@...
    ..@........@...
    .@@........@@..
    .@..........@..
    .@@........@@..
    ..@........@...
    ..@@......@@...
    ...@@@..@@@....
    .....@@@@......
    ......@@.......
    ......@@.......
    ......@@.......
    ......@@.......
    ..@@@@@@@@@@...
    ..@@@@@@@@@@...
    ......@@.......
    ......@@.......
    ......@@.......
    ...............
    ...............
    ...............
    ...............

u+266a:
0x0d:
    ...............
    ......@........
    ......@........
    ......@........
    ......@@.......
    ......@@@......
    ......@@@@.....
    ......@..@.....
    ......@..@@....
    ......@...@@...
    ......@...@@...
    ......@....@...
    ......@....@...
    ......@....@...
    ...@@@@....@...
    ..@@@@@....@...
    .@@@@@@........
    .@@@@@@........
    .@@@@@.........
    ..@@@..........
    ...............
    ...............
    ...............
    ...............
    ...............

u+266b:
0x0e:
    ...............
    ......@........
    ......@........
    ......@........
    ......@@.......
    ......@.@......
    ......@..@.....
    ......@...@....
    ......@@...@...
    ......@.@..@...
    ......@..@.@...
    ......@...@@...
    ......@....@...
    ......@....@...
    ...@@@@....@...
    ..@@@@@....@...
    .@@@@@@....@...
    .@@@@@@....@...
    .@@@@@.....@...
    ..@@@...@@@@...
    .......@@@@@...
    ......@@@@@@...
    ......@@@@@@...
    ......@@@@@....
    .......@@@.....

u+263c:
0x0f:
    ...............
    ...............
    ...............
    ...............
    ...............
    ...............
    .......@.......
    ..@....@....@..
    ...@.@@@@@.@...
    ....@@...@@....
    ...@@.....@@...
    ...@.......@...
    .@@@.......@@@.
    ...@.......@...
    ...@@.....@@...
    ....@@...@@....
    ...@.@@@@@.@...
    ..@....@....@..
    .......@.......
    ...............
    ...............
    ...............
    ...............
    ...............
    ...............

u+25ba:
0x10:
    ...............
    ...............
    ...............
    ...............
    ...............
    ...............
    ..@............
    ..@@@..........
    ..@@@@@........
    ..@@@@@@@......
    ..@@@@@@@@@....
    ..@@@@@@@@@@...
    ..@@@@@@@@@....
    ..@@@@@@@......
    ..@@@@@........
    ..@@@..........
    ..@............
    ...............
    ...............
    ...............
    ...............
    ...............
    ...............
    ...............
    ...............

u+25c4:
0x11:
    ...............
    ...............
    ...............
    ...............
    ...............
    ...............
    ...........@...
    .........@@@...
    .......@@@@@...
    .....@@@@@@@...
    ...@@@@@@@@@...
    ..@@@@@@@@@@...
    ...@@@@@@@@@...
    .....@@@@@@@...
    .......@@@@@...
    .........@@@...
    ...........@...
    ...............
    ...............
    ...............
    ...............
    ...............
    ...............
    ...............
    ...............

u+2195:
0x12:
    ...............
    ......@@.......
    .....@@@@......
    ....@@@@@@.....
    ....@@@@@@.....
    ...@@.@@.@@....
    ..@@..@@..@@...
    ..@@..@@..@@...
    ......@@.......
    ......@@.......
    ......@@.......
    ......@@.......
    ......@@.......
    ......@@.......
    ......@@.......
    ..@@..@@..@@...
    ..@@..@@..@@...
    ...@@.@@.@@....
    ....@@@@@@.....
    ....@@@@@@.....
    .....@@@@......
    ......@@.......
    ...............
    ...............
    ...............

u+203c:
0x13:
    ...............
    ...............
    ...............
    ...............
    ...............
    ..@@.....@@....
    ..@@.....@@....
    ..@@.....@@....
    ..@@.....@@....
    ..@@.....@@....
    ..@@.....@@....
    ..@@.....@@....
    ..@@.....@@....
    ..@@.....@@....
    ..@@.....@@....
    ...............
    ..@@@....@@@...
    .@@@@@..@@@@@..
    .@@@@@..@@@@@..
    ..@@@....@@@...
    ...............
    ...............
    ...............
    ...............
    ...............

0x14:
    ...............
    ...............
    ...............
    ...............
    ...............
    ...@@@@@@@@@@..
    ..@@@@@..@@@@..
    .@@@@@@..@@....
    .@@@@@@..@@....
    .@@@@@@..@@....
    .@@@@@@..@@....
    .@@@@@@..@@....
    ..@@@@@..@@....
    ...@@@@..@@....
    .....@@..@@....
    .....@@..@@....
    .....@@..@@....
    .....@@..@@....
    .....@@..@@....
    .....@@..@@....
    ...@@@@..@@@@..
    ...@@@@..@@@@..
    ...............
    ...............
    ...............

0x15:
    ...............
    ...............
    ...............
    ...............
    ...............
    .....@@@@@@@...
    ....@@@@@@@@...
    ....@@....@@...
    ...@@@....@@...
    ..@@@@@........
    ..@@.@@@.......
    ..@@..@@@@.....
    ..@@@..@@@@....
    ...@@@...@@@...
    ....@@@@..@@@..
    .....@@@@..@@..
    .......@@@.@@..
    ........@@@@@..
    ...@@....@@@...
    ...@@....@@....
    ...@@@@@@@@....
    ...@@@@@@@.....
    ...............
    ...............
    ...............

u+25ac:
0x16:
    ...............
    ...............
    ...............
    ...............
    ...............
    ...............
    ...............
    ...............
    ...............
    @@@@@@@@@@@@@@@
    @@@@@@@@@@@@@@@
    @@@@@@@@@@@@@@@
    @@@@@@@@@@@@@@@
    @@@@@@@@@@@@@@@
    ...............
    ...............
    ...............
    ...............
    ...............
    ...............
    ...............
    ...............
    ...............
    ...............
    ...............

u+21a8:
0x17:
    ...............
    ......@@.......
    .....@@@@......
    .....@@@@......
    ....@@@@@@.....
    ....@.@@.@.....
    ...@@.@@.@@....
    ...@..@@..@....
    ......@@.......
    ......@@.......
    ......@@.......
    ......@@.......
    ......@@.......
    ......@@.......
    ...@..@@..@....
    ...@@.@@.@@....
    ....@.@@.@.....
    ....@@@@@@.....
    .....@@@@......
    .....@@@@......
    ......@@.......
    ...............
    ...............
    ..@@@@@@@@@@...
    ..@@@@@@@@@@...

u+2191:
0x18:
    ...............
    ......@@.......
    .....@@@@......
    ....@@@@@@.....
    ....@@@@@@.....
    ...@@.@@.@@....
    ..@@..@@..@@...
    ..@@..@@..@@...
    ......@@.......
    ......@@.......
    ......@@.......
    ......@@.......
    ......@@.......
    ......@@.......
    ......@@.......
    ......@@.......
    ......@@.......
    ......@@.......
    ......@@.......
    ......@@.......
    ......@@.......
    ......@@.......
    ...............
    ...............
    ...............

u+2193:
0x19:
    ...............
    ......@@.......
    ......@@.......
    ......@@.......
    ......@@.......
    ......@@.......
    ......@@.......
    ......@@.......
    ......@@.......
    ......@@.......
    ......@@.......
    ......@@.......
    ......@@.......
    ......@@.......
    ......@@.......
    ..@@..@@..@@...
    ..@@..@@..@@...
    ...@@.@@.@@....
    ....@@@@@@.....
    ....@@@@@@.....
    .....@@@@......
    ......@@.......
    ...............
    ...............
    ...............

u+2192:
0x1a:
    ...............
    ...............
    ...............
    ...............
    ...............
    ...............
    ...............
    .......@@......
    .......@@@.....
    .........@@@...
    ..........@@@..
    @@@@@@@@@@@@@@.
    @@@@@@@@@@@@@@.
    ..........@@@..
    .........@@@...
    .......@@@.....
    .......@@......
    ...............
    ...............
    ...............
    ...............
    ...............
    ...............
    ...............
    ...............

u+2190:
0x1b:
    ...............
    ...............
    ...............
    ...............
    ...............
    ...............
    ...............
    .....@@........
    ....@@@........
    ..@@@..........
    .@@@...........
    @@@@@@@@@@@@@@.
    @@@@@@@@@@@@@@.
    .@@@...........
    ..@@@..........
    ....@@@........
    .....@@........
    ...............
    ...............
    ...............
    ...............
    ...............
    ...............
    ...............
    ...............

u+221f:
0x1c:
    ...............
    ...............
    ...............
    ...............
    ...............
    ...............
    ...............
    ...............
    ...............
    ...............
    ...............
    .@@............
    .@@............
    .@@............
    .@@............
    .@@@@@@@@@@@@..
    .@@@@@@@@@@@@..
    ...............
    ...............
    ...............
    ...............
    ...............
    ...............
    ...............
    ...............

u+2194:
0x1d:
    ...............
    ...............
    ...............
    ...............
    ...............
    ...............
    ...............
    ....@.....@....
    ...@@.....@@...
    ..@@.......@@..
    .@@.........@@.
    @@@@@@@@@@@@@@@
    @@@@@@@@@@@@@@@
    .@@.........@@.
    ..@@.......@@..
    ...@@.....@@...
    ....@.....@....
    ...............
    ...............
    ...............
    ...............
    ...............
    ...............
    ...............
    ...............

u+25b2:
0x1e:
    ...............
    ...............
    ...............
    ...............
    ...............
    ...............
    ...............
    .......@.......
    ......@@@......
    ......@@@......
    .....@@@@@.....
    .....@@@@@.....
    ....@@@@@@@....
    ....@@@@@@@....
    ...@@@@@@@@@...
    ...@@@@@@@@@...
    ..@@@@@@@@@@@..
    ...............
    ...............
    ...............
    ...............
    ...............
    ...............
    ...............
    ...............

u+25bc:
0x1f:
    ...............
    ...............
    ...............
    ...............
    ...............
    ...............
    ...............
    ..@@@@@@@@@@@..
    ...@@@@@@@@@...
    ...@@@@@@@@@...
    ....@@@@@@@....
    ....@@@@@@@....
    .....@@@@@.....
    .....@@@@@.....
    ......@@@......
    ......@@@......
    .......@.......
    ...............
    ...............
    ...............
    ...............
    ...............
    ...............
    ...............
    ...............

u+0020:
0x20:
    ...............
    ...............
    ...............
    ...............
    ...............
    ...............
    ...............
    ...............
    ...............
    ...............
    ...............
    ...............
    ...............
    ...............
    ...............
    ...............
    ...............
    ...............
    ...............
    ...............
    ...............
    ...............
    ...............
    ...............
    ...............

u+0021:
0x21:
    ...............
    ...............
    ...............
    ...............
    ...............
    ......@@.......
    ......@@.......
    ......@@.......
    ......@@.......
    ......@@.......
    ......@@.......
    ......@@.......
    ......@@.......
    ......@@.......
    ......@@.......
    ...............
    ......@@@......
    .....@@@@@.....
    .....@@@@@.....
    ......@@@......
    ...............
    ...............
    ...............
    ...............
    ...............

u+0022:
0x22:
    ...............
    ...............
    ...............
    ...............
    ...............
    ....@@..@@.....
    ....@@..@@.....
    ....@@..@@.....
    ....@@..@@.....
    ....@@..@@.....
    ....@@..@@.....
    ...............
    ...............
    ...............
    ...............
    ...............
    ...............
    ...............
    ...............
    ...............
    ...............
    ...............
    ...............
    ...............
    ...............

u+0023:
0x23:
    ...............
    ...............
    ...............
    ...............
    ...............
    ......@@...@@..
    ......@@...@@..
    .....@@...@@...
    .....@@...@@...
    .@@@@@@@@@@@@@.
    .@@@@@@@@@@@@@.
    ....@@...@@....
    ....@@...@@....
    ...@@...@@.....
    ...@@...@@.....
    @@@@@@@@@@@@@..
    @@@@@@@@@@@@@..
    ..@@...@@......
    ..@@...@@......
    .@@...@@.......
    .@@...@@.......
    ...............
    ...............
    ...............
    ...............

u+0024:
0x24:
    ...............
    ...............
    ...............
    ...............
    ...............
    ......@@.......
    ......@@.......
    .....@@@@.@@...
    ....@@@@@@@@...
    ...@@@...@@@...
    ...@@.....@@...
    ...@@..........
    ....@@@@@@@....
    .....@@@@@@@...
    ...........@@..
    ...@@......@@..
    ...@@@....@@@..
    ...@@@@@@@@@...
    ...@@.@@@@@....
    .......@@......
    .......@@......
    .......@@......
    ...............
    ...............
    ...............

u+0025:
0x25:
    ...............
    ...............
    ...............
    ...............
    ...............
    ..@@@@@........
    .@@@.@@@.......
    .@@...@@.......
    .@@...@@.......
    .@@@.@@@.......
    ..@@@@@...@@@..
    ........@@@....
    ......@@@......
    ....@@@........
    ..@@@...@@@@@..
    .......@@@.@@@.
    .......@@...@@.
    .......@@...@@.
    .......@@@.@@@.
    ........@@@@@..
    ...............
    ...............
    ...............
    ...............
    ...............

u+0026:
0x26:
    ...............
    ...............
    ...............
    ...............
    ...............
    ...............
    ....@@@@.......
    ...@@@@@@@.....
    ...@@...@......
    ...@@..........
    ...@@@.........
    ....@@.........
    ....@@@........
    ...@@@@@..@@...
    ..@@..@@@@@....
    ..@@...@@@@....
    ..@@....@@.....
    ..@@@...@@@....
    ...@@@@@@@@@...
    ....@@@@..@@...
    ...............
    ...............
    ...............
    ...............
    ...............

u+0027:
0x27:
    ...............
    ...............
    ...............
    ...............
    ...............
    ......@@.......
    ......@@.......
    ......@@.......
    ......@@.......
    ......@@.......
    ......@@.......
    ...............
    ...............
    ...............
    ...............
    ...............
    ...............
    ...............
    ...............
    ...............
    ...............
    ...............
    ...............
    ...............
    ...............

u+0028:
0x28:
    ...............
    ...............
    ...............
    ...............
    ...............
    ........@@.....
    .......@@@.....
    ......@@.......
    ......@@.......
    .....@@........
    .....@@........
    .....@@........
    ....@@.........
    ....@@.........
    ....@@.........
    ....@@.........
    ....@@.........
    ....@@.........
    .....@@........
    .....@@........
    .....@@........
    ......@@.......
    ......@@.......
    .......@@@.....
    ........@@.....

u+0029:
0x29:
    ...............
    ...............
    ...............
    ...............
    ...............
    ....@@.........
    ....@@@........
    ......@@.......
    ......@@.......
    .......@@......
    .......@@......
    .......@@......
    ........@@.....
    ........@@.....
    ........@@.....
    ........@@.....
    ........@@.....
    ........@@.....
    .......@@......
    .......@@......
    .......@@......
    ......@@.......
    ......@@.......
    ....@@@........
    ....@@.........

u+002a:
0x2a:
    ...............
    ...............
    ...............
    ...............
    ...............
    ......@@.......
    ......@@.......
    ......@@.......
    ..@@..@@..@@...
    ..@@@@@@@@@@...
    ....@@@@@@.....
    .....@@@@......
    ....@@@@@@.....
    ...@@@..@@@....
    ....@....@.....
    ...............
    ...............
    ...............
    ...............
    ...............
    ...............
    ...............
    ...............
    ...............
    ...............

u+002b:
0x2b:
    ...............
    ...............
    ...............
    ...............
    ...............
    ...............
    ...............
    ...............
    ......@@.......
    ......@@.......
    ......@@.......
    ......@@.......
    ......@@.......
    .@@@@@@@@@@@@..
    .@@@@@@@@@@@@..
    ......@@.......
    ......@@.......
    ......@@.......
    ......@@.......
    ......@@.......
    ...............
    ...............
    ...............
    ...............
    ...............

u+002c:
0x2c:
    ...............
    ...............
    ...............
    ...............
    ...............
    ...............
    ...............
    ...............
    ...............
    ...............
    ...............
    ...............
    ...............
    ...............
    ...............
    ...............
    ......@@@@.....
    ......@@@@.....
    ......@@@......
    .....@@@.......
    .....@@@.......
    ....@@@........
    ....@@.........
    ....@@.........
    ...............

u+002d:
0x2d:
    ...............
    ...............
    ...............
    ...............
    ...............
    ...............
    ...............
    ...............
    ...............
    ...............
    ...............
    ...............
    ...............
    ..@@@@@@@@@@@..
    ..@@@@@@@@@@@..
    ...............
    ...............
    ...............
    ...............
    ...............
    ...............
    ...............
    ...............
    ...............
    ...............

u+002e:
0x2e:
    ...............
    ...............
    ...............
    ...............
    ...............
    ...............
    ...............
    ...............
    ...............
    ...............
    ...............
    ...............
    ...............
    ...............
    ...............
    ...............
    ......@@@......
    .....@@@@@.....
    .....@@@@@.....
    ......@@@......
    ...............
    ...............
    ...............
    ...............
    ...............

u+002f:
0x2f:
    ...............
    ...............
    ...............
    ..........@@...
    ..........@@...
    .........@@....
    .........@@....
    ........@@.....
    ........@@.....
    .......@@......
    .......@@......
    ......@@.......
    ......@@.......
    ......@@.......
    .....@@........
    .....@@........
    ....@@.........
    ....@@.........
    ...@@..........
    ...@@..........
    ..@@...........
    ..@@...........
    ...............
    ...............
    ...............

u+0030:
0x30:
    ...............
    ...............
    ...............
    ...............
    ...............
    .....@@@@......
    ...@@@@@@@@....
    ...@@....@@....
    ..@@......@@...
    ..@@......@@...
    ..@@......@@...
    ..@@......@@...
    ..@@......@@...
    ..@@......@@...
    ..@@......@@...
    ..@@......@@...
    ..@@......@@...
    ...@@....@@....
    ...@@@@@@@@....
    .....@@@@......
    ...............
    ...............
    ...............
    ...............
    ...............

u+0031:
0x31:
    ...............
    ...............
    ...............
    ...............
    ...............
    ......@@@......
    ...@@@@@@......
    ...@@@.@@......
    .......@@......
    .......@@......
    .......@@......
    .......@@......
    .......@@......
    .......@@......
    .......@@......
    .......@@......
    .......@@......
    .......@@......
    ...@@@@@@@@@@..
    ...@@@@@@@@@@..
    ...............
    ...............
    ...............
    ...............
    ...............

u+0032:
0x32:
    ...............
    ...............
    ...............
    ...............
    ...............
    .....@@@@......
    ...@@@@@@@@....
    ...@@....@@....
    ...@@.....@@...
    ..........@@...
    ..........@@...
    .........@@....
    ........@@@....
    .......@@@.....
    ......@@@......
    .....@@@.......
    ....@@@........
    ...@@.....@@...
    ..@@@@@@@@@@...
    ..@@@@@@@@@@...
    ...............
    ...............
    ...............
    ...............
    ...............

u+0033:
0x33:
    ...............
    ...............
    ...............
    ...............
    ...............
    ....@@@@@......
    ..@@@@@@@@.....
    ..@@....@@@....
    .........@@....
    .........@@....
    ........@@@....
    ......@@@@.....
    ......@@@@@....
    .........@@@...
    ..........@@...
    ..........@@...
    ..........@@...
    ..@@@....@@....
    ..@@@@@@@@@....
    ....@@@@@......
    ...............
    ...............
    ...............
    ...............
    ...............

u+0034:
0x34:
    ...............
    ...............
    ...............
    ...............
    ...............
    ........@@.....
    .......@@@.....
    ......@@@@.....
    ......@.@@.....
    .....@@.@@.....
    ....@@..@@.....
    ....@...@@.....
    ...@@...@@.....
    ..@@....@@..@..
    ..@@@@@@@@@@@..
    ..@@@@@@@@@@@..
    ........@@.....
    ........@@.....
    ......@@@@@@...
    ......@@@@@@...
    ...............
    ...............
    ...............
    ...............
    ...............

u+0035:
0x35:
    ...............
    ...............
    ...............
    ...............
    ...............
    ..@@@@@@@@@....
    ..@@@@@@@@@....
    ..@@...........
    ..@@...........
    ..@@...........
    ..@@.@@@@......
    ..@@@@@@@@@....
    ..@@@....@@....
    ..........@@...
    ..........@@...
    ..........@@...
    ..........@@...
    ..@@@....@@....
    ..@@@@@@@@@....
    ....@@@@@......
    ...............
    ...............
    ...............
    ...............
    ...............

u+0036:
0x36:
    ...............
    ...............
    ...............
    ...............
    ...............
    .......@@@@@...
    ....@@@@@@@@...
    ....@@@........
    ...@@..........
    ...@@..........
    ..@@...........
    ..@@.@@@@......
    ..@@@@@@@@@....
    ..@@@....@@....
    ..@@......@@...
    ..@@......@@...
    ..@@......@@...
    ...@@....@@....
    ...@@@@@@@@....
    .....@@@@......
    ...............
    ...............
    ...............
    ...............
    ...............

u+0037:
0x37:
    ...............
    ...............
    ...............
    ...............
    ...............
    ..@@@@@@@@@@...
    ..@@@@@@@@@@...
    ..@@......@@...
    .........@@....
    .........@@....
    ........@@.....
    ........@@.....
    .......@@......
    .......@@......
    .......@@......
    ......@@.......
    ......@@.......
    .....@@........
    .....@@........
    ....@@.........
    ...............
    ...............
    ...............
    ...............
    ...............

u+0038:
0x38:
    ...............
    ...............
    ...............
    ...............
    ...............
    .....@@@@......
    ...@@@@@@@@....
    ...@@....@@....
    ..@@......@@...
    ..@@......@@...
    ...@@....@@....
    ....@@@@@@.....
    ....@@@@@@.....
    ...@@....@@....
    ..@@......@@...
    ..@@......@@...
    ..@@......@@...
    ...@@....@@....
    ...@@@@@@@@....
    .....@@@@......
    ...............
    ...............
    ...............
    ...............
    ...............

u+0039:
0x39:
    ...............
    ...............
    ...............
    ...............
    ...............
    .....@@@@......
    ...@@@@@@@@....
    ...@@....@@....
    ..@@......@@...
    ..@@......@@...
    ..@@......@@...
    ...@@....@@@...
    ...@@@@@@@@@...
    .....@@@@.@@...
    ..........@@...
    .........@@....
    .........@@....
    .......@@@.....
    ..@@@@@@@@.....
    ..@@@@@........
    ...............
    ...............
    ...............
    ...............
    ...............

u+003a:
0x3a:
    ...............
    ...............
    ...............
    ...............
    ...............
    ...............
    ...............
    ...............
    ......@@@......
    .....@@@@@.....
    .....@@@@@.....
    ......@@@......
    ...............
    ...............
    ...............
    ...............
    ......@@@......
    .....@@@@@.....
    .....@@@@@.....
    ......@@@......
    ...............
    ...............
    ...............
    ...............
    ...............

u+003b:
0x3b:
    ...............
    ...............
    ...............
    ...............
    ...............
    ...............
    ...............
    ...............
    ......@@@......
    .....@@@@@.....
    .....@@@@@.....
    ......@@@......
    ...............
    ...............
    ...............
    ...............
    .....@@@@......
    .....@@@@......
    .....@@@.......
    ....@@@........
    ....@@@........
    ...@@@.........
    ...@@..........
    ...@@..........
    ...............

u+003c:
0x3c:
    ...............
    ...............
    ...............
    ...............
    ...............
    ...............
    ...............
    ...............
    ...........@@..
    .........@@@@..
    .......@@@@....
    .....@@@@......
    ...@@@@........
    .@@@@..........
    .@@@@..........
    ...@@@@........
    .....@@@@......
    .......@@@@....
    .........@@@@..
    ...........@@..
    ...............
    ...............
    ...............
    ...............
    ...............

u+003d:
0x3d:
    ...............
    ...............
    ...............
    ...............
    ...............
    ...............
    ...............
    ...............
    ...............
    ...............
    ...............
    .@@@@@@@@@@@@..
    .@@@@@@@@@@@@..
    ...............
    ...............
    .@@@@@@@@@@@@..
    .@@@@@@@@@@@@..
    ...............
    ...............
    ...............
    ...............
    ...............
    ...............
    ...............
    ...............

u+003e:
0x3e:
    ...............
    ...............
    ...............
    ...............
    ...............
    ...............
    ...............
    ...............
    .@@............
    .@@@@..........
    ...@@@@........
    .....@@@@......
    .......@@@@....
    .........@@@@..
    .........@@@@..
    .......@@@@....
    .....@@@@......
    ...@@@@........
    .@@@@..........
    .@@............
    ...............
    ...............
    ...............
    ...............
    ...............

u+003f:
0x3f:
    ...............
    ...............
    ...............
    ...............
    ...............
    ...@@@@@@......
    ...@@@@@@@@....
    ...@@....@@....
    ..........@@...
    ..........@@...
    .........@@@...
    .......@@@@....
    .....@@@@@.....
    .....@@........
    .....@@........
    ...............
    .....@@@.......
    ....@@@@@......
    ....@@@@@......
    .....@@@.......
    ...............
    ...............
    ...............
    ...............
    ...............

u+0040:
0x40:
    ...............
    ...............
    ...............
    ...............
    ...............
    .....@@@@......
    ...@@@@@@@@....
    ...@@....@@....
    ..@@......@@...
    ..@@......@@...
    ..@@..@@@@@@...
    ..@@.@@@.@@@...
    ..@@.@@...@@...
    ..@@.@@...@@...
    ..@@.@@@.@@@@..
    ..@@..@@@@.@@..
    ..@@...........
    ..@@...........
    ...@@..........
    ...@@@@@@@@....
    .....@@@@@@....
    ...............
    ...............
    ...............
    ...............

u+0041:
0x41:
    ...............
    ...............
    ...............
    ...............
    ...............
    ...@@@@@@......
    ...@@@@@@......
    .....@@@@@.....
    .....@@.@@.....
    ....@@..@@.....
    ....@@...@@....
    ....@@...@@....
    ...@@.....@@...
    ...@@@@@@@@@...
    ...@@@@@@@@@...
    ...@@.....@@...
    ..@@.......@@..
    ..@@.......@@..
    @@@@@@...@@@@@@
    @@@@@@...@@@@@@
    ...............
    ...............
    ...............
    ...............
    ...............

u+0042:
0x42:
    ...............
    ...............
    ...............
    ...............
    ...............
    .@@@@@@@@@.....
    .@@@@@@@@@@....
    ...@@....@@@...
    ...@@.....@@...
    ...@@.....@@...
    ...@@....@@@...
    ...@@@@@@@@....
    ...@@@@@@@@@...
    ...@@.....@@@..
    ...@@......@@..
    ...@@......@@..
    ...@@......@@..
    ...@@.....@@@..
    .@@@@@@@@@@@...
    .@@@@@@@@@@....
    ...............
    ...............
    ...............
    ...............
    ...............

u+0043:
0x43:
    ...............
    ...............
    ...............
    ...............
    ...............
    .....@@@@@.@@..
    ...@@@@@@@@@@..
    ..@@@@...@@@@..
    ..@@.......@@..
    .@@@.......@@..
    .@@............
    .@@............
    .@@............
    .@@............
    .@@............
    .@@@...........
    ..@@........@..
    ..@@@@....@@@@.
    ...@@@@@@@@@@..
    .....@@@@@@....
    ...............
    ...............
    ...............
    ...............
    ...............

u+0044:
0x44:
    ...............
    ...............
    ...............
    ...............
    ...............
    @@@@@@@@@......
    @@@@@@@@@@@....
    ..@@....@@@@...
    ..@@......@@...
    ..@@......@@@..
    ..@@.......@@..
    ..@@.......@@..
    ..@@.......@@..
    ..@@.......@@..
    ..@@.......@@..
    ..@@......@@@..
    ..@@......@@...
    ..@@....@@@@...
    @@@@@@@@@@@....
    @@@@@@@@@......
    ...............
    ...............
    ...............
    ...............
    ...............

u+0045:
0x45:
    ...............
    ...............
    ...............
    ...............
    ...............
    .@@@@@@@@@@@@..
    .@@@@@@@@@@@@..
    ...@@......@@..
    ...@@......@@..
    ...@@...@@.@@..
    ...@@...@@.....
    ...@@@@@@@.....
    ...@@@@@@@.....
    ...@@...@@.....
    ...@@...@@.....
    ...@@......@@..
    ...@@......@@..
    ...@@......@@..
    .@@@@@@@@@@@@..
    .@@@@@@@@@@@@..
    ...............
    ...............
    ...............
    ...............
    ...............

u+0046:
0x46:
    ...............
    ...............
    ...............
    ...............
    ...............
    .@@@@@@@@@@@@..
    .@@@@@@@@@@@@..
    ...@@......@@..
    ...@@......@@..
    ...@@...@@.@@..
    ...@@...@@.....
    ...@@@@@@@.....
    ...@@@@@@@.....
    ...@@...@@.....
    ...@@...@@.....
    ...@@..........
    ...@@..........
    ...@@..........
    .@@@@@@@.......
    .@@@@@@@.......
    ...............
    ...............
    ...............
    ...............
    ...............

u+0047:
0x47:
    ...............
    ...............
    ...............
    ...............
    ...............
    .....@@@@@.@@..
    ...@@@@@@@@@@..
    ..@@@@...@@@@..
    ..@@.......@@..
    .@@@.......@@..
    .@@............
    .@@............
    .@@............
    .@@....@@@@@@@.
    .@@....@@@@@@@.
    .@@@.......@@..
    ..@@.......@@..
    ..@@@@....@@@..
    ...@@@@@@@@@@..
    .....@@@@@@....
    ...............
    ...............
    ...............
    ...............
    ...............

u+0048:
0x48:
    ...............
    ...............
    ...............
    ...............
    ...............
    @@@@@@..@@@@@@.
    @@@@@@..@@@@@@.
    ..@@......@@...
    ..@@......@@...
    ..@@......@@...
    ..@@......@@...
    ..@@@@@@@@@@...
    ..@@@@@@@@@@...
    ..@@......@@...
    ..@@......@@...
    ..@@......@@...
    ..@@......@@...
    ..@@......@@...
    @@@@@@..@@@@@@.
    @@@@@@..@@@@@@.
    ...............
    ...............
    ...............
    ...............
    ...............

u+0049:
0x49:
    ...............
    ...............
    ...............
    ...............
    ...............
    ..@@@@@@@@@@...
    ..@@@@@@@@@@...
    ......@@.......
    ......@@.......
    ......@@.......
    ......@@.......
    ......@@.......
    ......@@.......
    ......@@.......
    ......@@.......
    ......@@.......
    ......@@.......
    ......@@.......
    ..@@@@@@@@@@...
    ..@@@@@@@@@@...
    ...............
    ...............
    ...............
    ...............
    ...............

u+004a:
0x4a:
    ...............
    ...............
    ...............
    ...............
    ...............
    .....@@@@@@@@@.
    .....@@@@@@@@@.
    .........@@....
    .........@@....
    .........@@....
    .........@@....
    .........@@....
    .........@@....
    .........@@....
    .@@......@@....
    .@@......@@....
    .@@......@@....
    .@@@....@@.....
    ..@@@@@@@@.....
    ....@@@@.......
    ...............
    ...............
    ...............
    ...............
    ...............

u+004b:
0x4b:
    ...............
    ...............
    ...............
    ...............
    ...............
    @@@@@@..@@@@@..
    @@@@@@..@@@@@..
    ..@@.....@@....
    ..@@....@@.....
    ..@@...@@......
    ..@@..@@.......
    ..@@.@@@.......
    ..@@@@@@@......
    ..@@@..@@@.....
    ..@@....@@@....
    ..@@.....@@....
    ..@@.....@@@...
    ..@@......@@...
    @@@@@@....@@@@.
    @@@@@@....@@@@.
    ...............
    ...............
    ...............
    ...............
    ...............

u+004c:
0x4c:
    ...............
    ...............
    ...............
    ...............
    ...............
    .@@@@@@@@......
    .@@@@@@@@......
    ....@@.........
    ....@@.........
    ....@@.........
    ....@@.........
    ....@@.........
    ....@@.........
    ....@@.........
    ....@@......@@.
    ....@@......@@.
    ....@@......@@.
    ....@@......@@.
    .@@@@@@@@@@@@@.
    .@@@@@@@@@@@@@.
    ...............
    ...............
    ...............
    ...............
    ...............

u+004d:
0x4d:
    ...............
    ...............
    ...............
    ...............
    ...............
    .@@@@.....@@@@.
    .@@@@.....@@@@.
    ..@@@@...@@@@..
    ..@@@@...@@@@..
    ..@@.@...@.@@..
    ..@@.@@.@@.@@..
    ..@@.@@.@@.@@..
    ..@@..@.@..@@..
    ..@@..@@@..@@..
    ..@@..@@@..@@..
    ..@@...@...@@..
    ..@@.......@@..
    ..@@.......@@..
    @@@@@@...@@@@@@
    @@@@@@...@@@@@@
    ...............
    ...............
    ...............
    ...............
    ...............

u+004e:
0x4e:
    ...............
    ...............
    ...............
    ...............
    ...............
    @@@@....@@@@@@@
    @@@@@...@@@@@@@
    ..@@@......@@..
    ..@@@@.....@@..
    ..@@.@@....@@..
    ..@@.@@....@@..
    ..@@..@@...@@..
    ..@@...@@..@@..
    ..@@...@@..@@..
    ..@@....@@.@@..
    ..@@.....@.@@..
    ..@@.....@@@@..
    ..@@......@@@..
    @@@@@@@...@@@..
    @@@@@@@....@@..
    ...............
    ...............
    ...............
    ...............
    ...............

u+004f:
0x4f:
    ...............
    ...............
    ...............
    ...............
    ...............
    ....@@@@@@.....
    ..@@@@@@@@@@...
    .@@@@....@@@@..
    .@@........@@..
    @@@........@@@.
    @@..........@@.
    @@..........@@.
    @@..........@@.
    @@..........@@.
    @@..........@@.
    @@@........@@@.
    .@@........@@..
    .@@@@....@@@@..
    ..@@@@@@@@@@...
    ....@@@@@@.....
    ...............
    ...............
    ...............
    ...............
    ...............

u+0050:
0x50:
    ...............
    ...............
    ...............
    ...............
    ...............
    .@@@@@@@@@.....
    .@@@@@@@@@@@...
    ...@@.....@@...
    ...@@......@@..
    ...@@......@@..
    ...@@......@@..
    ...@@.....@@...
    ...@@@@@@@@@...
    ...@@@@@@@.....
    ...@@..........
    ...@@..........
    ...@@..........
    ...@@..........
    .@@@@@@@@......
    .@@@@@@@@......
    ...............
    ...............
    ...............
    ...............
    ...............

u+0051:
0x51:
    ...............
    ...............
    ...............
    ...............
    ...............
    ....@@@@@@.....
    ..@@@@@@@@@@...
    .@@@@....@@@@..
    .@@........@@..
    @@@........@@@.
    @@..........@@.
    @@..........@@.
    @@..........@@.
    @@..........@@.
    @@..........@@.
    @@@........@@@.
    .@@........@@..
    .@@@@....@@@@..
    ..@@@@@@@@@@...
    ....@@@@@@.....
    .....@.........
    ...@@@@@@@@@@@.
    ....@@@...@@@..
    ...............
    ...............

u+0052:
0x52:
    ...............
    ...............
    ...............
    ...............
    ...............
    @@@@@@@@@......
    @@@@@@@@@@@....
    ..@@.....@@....
    ..@@......@@...
    ..@@......@@...
    ..@@......@@...
    ..@@.....@@....
    ..@@@@@@@@@....
    ..@@@@@@@......
    ..@@...@@@.....
    ..@@....@@@....
    ..@@.....@@....
    ..@@.....@@@...
    @@@@@@....@@@@.
    @@@@@@....@@@@.
    ...............
    ...............
    ...............
    ...............
    ...............

u+0053:
0x53:
    ...............
    ...............
    ...............
    ...............
    ...............
    .....@@@@.@@...
    ...@@@@@@@@@...
    ...@@....@@@...
    ..@@......@@...
    ..@@...........
    ..@@@..........
    ...@@@@@@@@....
    ....@@@@@@@@...
    ..........@@@..
    ...........@@..
    ..@@.......@@..
    ..@@.......@@..
    ..@@@.....@@...
    ..@@@@@@@@@@...
    ..@@.@@@@@.....
    ...............
    ...............
    ...............
    ...............
    ...............

u+0054:
0x54:
    ...............
    ...............
    ...............
    ...............
    ...............
    .@@@@@@@@@@@@..
    .@@@@@@@@@@@@..
    .@@...@@...@@..
    .@@...@@...@@..
    .@@...@@...@@..
    .@@...@@...@@..
    ......@@.......
    ......@@.......
    ......@@.......
    ......@@.......
    ......@@.......
    ......@@.......
    ......@@.......
    ...@@@@@@@@....
    ...@@@@@@@@....
    ...............
    ...............
    ...............
    ...............
    ...............

u+0055:
0x55:
    ...............
    ...............
    ...............
    ...............
    ...............
    @@@@@@...@@@@@@
    @@@@@@...@@@@@@
    ..@@.......@@..
    ..@@.......@@..
    ..@@.......@@..
    ..@@.......@@..
    ..@@.......@@..
    ..@@.......@@..
    ..@@.......@@..
    ..@@.......@@..
    ..@@.......@@..
    ..@@.......@@..
    ...@@.....@@...
    ...@@@@@@@@@...
    .....@@@@@.....
    ...............
    ...............
    ...............
    ...............
    ...............

u+0056:
0x56:
    ...............
    ...............
    ...............
    ...............
    ...............
    @@@@@@...@@@@@@
    @@@@@@...@@@@@@
    ..@@.......@@..
    ..@@.......@@..
    ..@@.......@@..
    ...@@.....@@...
    ...@@.....@@...
    ...@@.....@@...
    ....@@...@@....
    ....@@...@@....
    .....@@.@@.....
    .....@@.@@.....
    .....@@@@@.....
    ......@@@......
    ......@@@......
    ...............
    ...............
    ...............
    ...............
    ...............

u+0057:
0x57:
    ...............
    ...............
    ...............
    ...............
    ...............
    @@@@@.....@@@@@
    @@@@@.....@@@@@
    .@@.........@@.
    .@@.........@@.
    .@@....@....@@.
    .@@...@@@...@@.
    ..@@..@@@..@@..
    ..@@..@@@..@@..
    ..@@.@@.@@.@@..
    ..@@.@@.@@.@@..
    ..@@.@@.@@.@@..
    ..@@@@...@@@...
    ...@@@...@@@...
    ...@@.....@@...
    ...@@.....@@...
    ...............
    ...............
    ...............
    ...............
    ...............

u+0058:
0x58:
    ...............
    ...............
    ...............
    ...............
    ...............
    @@@@@@..@@@@@@.
    @@@@@@..@@@@@@.
    ..@@......@@...
    ...@@....@@....
    ....@@..@@.....
    ....@@..@@.....
    .....@@@@......
    ......@@.......
    .....@@@@......
    ....@@..@@.....
    ....@@..@@.....
    ...@@....@@....
    ..@@......@@...
    @@@@@@..@@@@@@.
    @@@@@@..@@@@@@.
    ...............
    ...............
    ...............
    ...............
    ...............

u+0059:
0x59:
    ...............
    ...............
    ...............
    ...............
    ...............
    @@@@@@..@@@@@@.
    @@@@@@..@@@@@@.
    ..@@......@@...
    ...@@....@@....
    ...@@....@@....
    ....@@..@@.....
    ....@@..@@.....
    .....@@@@......
    .....@@@@......
    ......@@.......
    ......@@.......
    ......@@.......
    ......@@.......
    ...@@@@@@@@....
    ...@@@@@@@@....
    ...............
    ...............
    ...............
    ...............
    ...............

u+005a:
0x5a:
    ...............
    ...............
    ...............
    ...............
    ...............
    ..@@@@@@@@@@...
    ..@@@@@@@@@@...
    ..@@.....@@@...
    ..@@....@@@....
    ..@@....@@.....
    .......@@......
    .......@@......
    ......@@.......
    .....@@........
    .....@@........
    ....@@....@@...
    ...@@@....@@...
    ..@@@.....@@...
    ..@@@@@@@@@@...
    ..@@@@@@@@@@...
    ...............
    ...............
    ...............
    ...............
    ...............

u+005b:
0x5b:
    ...............
    ...............
    ...............
    ...............
    ...............
    .....@@@@@.....
    .....@@@@@.....
    .....@@........
    .....@@........
    .....@@........
    .....@@........
    .....@@........
    .....@@........
    .....@@........
    .....@@........
    .....@@........
    .....@@........
    .....@@........
    .....@@........
    .....@@........
    .....@@........
    .....@@........
    .....@@........
    .....@@@@@.....
    .....@@@@@.....

u+005c:
0x5c:
    ...............
    ...............
    ...............
    ..@@...........
    ..@@...........
    ...@@..........
    ...@@..........
    ....@@.........
    ....@@.........
    .....@@........
    .....@@........
    ......@@.......
    ......@@.......
    ......@@.......
    .......@@......
    .......@@......
    ........@@.....
    ........@@.....
    .........@@....
    .........@@....
    ..........@@...
    ..........@@...
    ...............
    ...............
    ...............

u+005d:
0x5d:
    ...............
    ...............
    ...............
    ...............
    ...............
    .....@@@@@.....
    .....@@@@@.....
    ........@@.....
    ........@@.....
    ........@@.....
    ........@@.....
    ........@@.....
    ........@@.....
    ........@@.....
    ........@@.....
    ........@@.....
    ........@@.....
    ........@@.....
    ........@@.....
    ........@@.....
    ........@@.....
    ........@@.....
    ........@@.....
    .....@@@@@.....
    .....@@@@@.....

u+005e:
0x5e:
    ...............
    ...............
    ...............
    ...............
    ...............
    ......@@.......
    .....@@@@......
    ....@@..@@.....
    ...@@....@@....
    ...............
    ...............
    ...............
    ...............
    ...............
    ...............
    ...............
    ...............
    ...............
    ...............
    ...............
    ...............
    ...............
    ...............
    ...............
    ...............

u+005f:
0x5f:
    ...............
    ...............
    ...............
    ...............
    ...............
    ...............
    ...............
    ...............
    ...............
    ...............
    ...............
    ...............
    ...............
    ...............
    ...............
    ...............
    ...............
    ...............
    ...............
    ...............
    ...............
    ...............
    ...............
    @@@@@@@@@@@@@@@
    @@@@@@@@@@@@@@@

u+0060:
0x60:
    ...............
    ...............
    ...............
    ...............
    ...............
    ....@@.........
    ....@@@........
    ......@@@......
    ........@@.....
    ...............
    ...............
    ...............
    ...............
    ...............
    ...............
    ...............
    ...............
    ...............
    ...............
    ...............
    ...............
    ...............
    ...............
    ...............
    ...............

u+0061:
0x61:
    ...............
    ...............
    ...............
    ...............
    ...............
    ...............
    ...............
    ...............
    ....@@@@@@.....
    ..@@@@@@@@@....
    ...@.....@@@...
    ..........@@...
    ....@@@@@.@@...
    ..@@@@@@@@@@...
    ..@@.....@@@...
    .@@.......@@...
    .@@.......@@...
    ..@@....@@@@...
    ..@@@@@@@@@@@@.
    ....@@@@..@@@@.
    ...............
    ...............
    ...............
    ...............
    ...............

u+0062:
0x62:
    ...............
    ...............
    ...............
    ...............
    @@@@...........
    @@@@...........
    ..@@...........
    ..@@...........
    ..@@.@@@@......
    ..@@@@@@@@@....
    ..@@@....@@@...
    ..@@......@@...
    ..@@.......@@..
    ..@@.......@@..
    ..@@.......@@..
    ..@@.......@@..
    ..@@......@@...
    ..@@@....@@@...
    @@@@@@@@@@@....
    @@@@.@@@@......
    ...............
    ...............
    ...............
    ...............
    ...............

u+0063:
0x63:
    ...............
    ...............
    ...............
    ...............
    ...............
    ...............
    ...............
    ...............
    .....@@@@..@@..
    ...@@@@@@@@@@..
    ..@@@....@@@@..
    ..@@.......@@..
    .@@........@@..
    .@@............
    .@@............
    .@@............
    ..@@.......@...
    ..@@@.....@@@..
    ...@@@@@@@@@...
    .....@@@@@.....
    ...............
    ...............
    ...............
    ...............
    ...............

u+0064:
0x64:
    ...............
    ...............
    ...............
    ...............
    ........@@@@...
    ........@@@@...
    ..........@@...
    ..........@@...
    .....@@@@.@@...
    ...@@@@@@@@@...
    ..@@@....@@@...
    ..@@......@@...
    .@@.......@@...
    .@@.......@@...
    .@@.......@@...
    .@@.......@@...
    ..@@......@@...
    ..@@@....@@@...
    ...@@@@@@@@@@@.
    .....@@@@.@@@@.
    ...............
    ...............
    ...............
    ...............
    ...............

u+0065:
0x65:
    ...............
    ...............
    ...............
    ...............
    ...............
    ...............
    ...............
    ...............
    .....@@@@......
    ...@@@@@@@@....
    ..@@@....@@@...
    ..@@......@@...
    .@@........@@..
    .@@@@@@@@@@@@..
    .@@@@@@@@@@@@..
    .@@............
    ..@@...........
    ..@@@.....@@...
    ...@@@@@@@@@@..
    .....@@@@@@....
    ...............
    ...............
    ...............
    ...............
    ...............

u+0066:
0x66:
    ...............
    ...............
    ...............
    ...............
    .......@@@@@@..
    ......@@@@@@@..
    .....@@@.......
    .....@@........
    ..@@@@@@@@@@...
    ..@@@@@@@@@@...
    .....@@........
    .....@@........
    .....@@........
    .....@@........
    .....@@........
    .....@@........
    .....@@........
    .....@@........
    ..@@@@@@@@@@...
    ..@@@@@@@@@@...
    ...............
    ...............
    ...............
    ...............
    ...............

u+0067:
0x67:
    ...............
    ...............
    ...............
    ...............
    ...............
    ...............
    ...............
    ...............
    ....@@@@@.@@@@.
    ..@@@@@@@@@@@@.
    ..@@.....@@@...
    .@@.......@@...
    .@@.......@@...
    .@@.......@@...
    .@@.......@@...
    .@@.......@@...
    ..@@.....@@@...
    ..@@@@@@@@@@...
    ....@@@@@.@@...
    ..........@@...
    ..........@@...
    ..........@@...
    .........@@....
    ...@@@@@@@@....
    ...@@@@@@......

u+0068:
0x68:
    ...............
    ...............
    ...............
    ...............
    @@@@...........
    @@@@...........
    ..@@...........
    ..@@...........
    ..@@..@@@@.....
    ..@@@@@@@@@....
    ..@@@@...@@@...
    ..@@......@@...
    ..@@......@@...
    ..@@......@@...
    ..@@......@@...
    ..@@......@@...
    ..@@......@@...
    ..@@......@@...
    @@@@@@..@@@@@@.
    @@@@@@..@@@@@@.
    ...............
    ...............
    ...............
    ...............
    ...............

u+0069:
0x69:
    ...............
    ...............
    ...............
    ......@@.......
    ......@@.......
    ......@@.......
    ...............
    ...............
    ..@@@@@@.......
    ..@@@@@@.......
    ......@@.......
    ......@@.......
    ......@@.......
    ......@@.......
    ......@@.......
    ......@@.......
    ......@@.......
    ......@@.......
    .@@@@@@@@@@@@..
    .@@@@@@@@@@@@..
    ...............
    ...............
    ...............
    ...............
    ...............

u+006a:
0x6a:
    ...............
    ...............
    ...............
    .......@@......
    .......@@......
    .......@@......
    ...............
    ...............
    ..@@@@@@@@.....
    ..@@@@@@@@.....
    ........@@.....
    ........@@.....
    ........@@.....
    ........@@.....
    ........@@.....
    ........@@.....
    ........@@.....
    ........@@.....
    ........@@.....
    ........@@.....
    ........@@.....
    ........@@.....
    .......@@......
    ..@@@@@@@......
    ..@@@@@........

u+006b:
0x6b:
    ...............
    ...............
    ...............
    ...............
    .@@@@..........
    .@@@@..........
    ...@@..........
    ...@@..........
    ...@@..@@@@@@..
    ...@@..@@@@@@..
    ...@@...@@.....
    ...@@..@@......
    ...@@.@@.......
    ...@@@@........
    ...@@@@@.......
    ...@@..@@@.....
    ...@@...@@@....
    ...@@.....@@...
    .@@@@...@@@@@@.
    .@@@@...@@@@@@.
    ...............
    ...............
    ...............
    ...............
    ...............

u+006c:
0x6c:
    ...............
    ...............
    ...............
    ...............
    ..@@@@@@.......
    ..@@@@@@.......
    ......@@.......
    ......@@.......
    ......@@.......
    ......@@.......
    ......@@.......
    ......@@.......
    ......@@.......
    ......@@.......
    ......@@.......
    ......@@.......
    ......@@.......
    ......@@.......
    ..@@@@@@@@@@...
    ..@@@@@@@@@@...
    ...............
    ...............
    ...............
    ...............
    ...............

u+006d:
0x6d:
    ...............
    ...............
    ...............
    ...............
    ...............
    ...............
    ...............
    ...............
    @@@@.@@@.@@@@..
    @@@@@@@@@@@@@@.
    ..@@@..@@@..@@.
    ..@@...@@...@@.
    ..@@...@@...@@.
    ..@@...@@...@@.
    ..@@...@@...@@.
    ..@@...@@...@@.
    ..@@...@@...@@.
    ..@@...@@...@@.
    @@@@@..@@@..@@@
    @@@@@..@@@..@@@
    ...............
    ...............
    ...............
    ...............
    ...............

u+006e:
0x6e:
    ...............
    ...............
    ...............
    ...............
    ...............
    ...............
    ...............
    ...............
    @@@@..@@@@.....
    @@@@@@@@@@@....
    ..@@@@...@@@...
    ..@@......@@...
    ..@@......@@...
    ..@@......@@...
    ..@@......@@...
    ..@@......@@...
    ..@@......@@...
    ..@@......@@...
    @@@@@@..@@@@@@.
    @@@@@@..@@@@@@.
    ...............
    ...............
    ...............
    ...............
    ...............

u+006f:
0x6f:
    ...............
    ...............
    ...............
    ...............
    ...............
    ...............
    ...............
    ...............
    .....@@@@......
    ...@@@@@@@@....
    ..@@@....@@@...
    ..@@......@@...
    .@@........@@..
    .@@........@@..
    .@@........@@..
    .@@........@@..
    ..@@......@@...
    ..@@@....@@@...
    ...@@@@@@@@....
    .....@@@@......
    ...............
    ...............
    ...............
    ...............
    ...............

u+0070:
0x70:
    ...............
    ...............
    ...............
    ...............
    ...............
    ...............
    ...............
    ...............
    @@@@.@@@@......
    @@@@@@@@@@@....
    ..@@@....@@@...
    ..@@......@@...
    ..@@.......@@..
    ..@@.......@@..
    ..@@.......@@..
    ..@@.......@@..
    ..@@......@@...
    ..@@@....@@@...
    ..@@@@@@@@@....
    ..@@.@@@@......
    ..@@...........
    ..@@...........
    ..@@...........
    @@@@@@@@.......
    @@@@@@@@.......

u+0071:
0x71:
    ...............
    ...............
    ...............
    ...............
    ...............
    ...............
    ...............
    ...............
    .....@@@@.@@@@.
    ...@@@@@@@@@@@.
    ..@@@....@@@...
    ..@@......@@...
    .@@.......@@...
    .@@.......@@...
    .@@.......@@...
    .@@.......@@...
    ..@@......@@...
    ..@@@....@@@...
    ...@@@@@@@@@...
    .....@@@@.@@...
    ..........@@...
    ..........@@...
    ..........@@...
    ......@@@@@@@@.
    ......@@@@@@@@.

u+0072:
0x72:
    ...............
    ...............
    ...............
    ...............
    ...............
    ...............
    ...............
    ...............
    ..@@@@..@@@@@..
    ..@@@@.@@@@@@@.
    ....@@@@@..@@..
    ....@@@........
    ....@@.........
    ....@@.........
    ....@@.........
    ....@@.........
    ....@@.........
    ....@@.........
    ..@@@@@@@@.....
    ..@@@@@@@@.....
    ...............
    ...............
    ...............
    ...............
    ...............

u+0073:
0x73:
    ...............
    ...............
    ...............
    ...............
    ...............
    ...............
    ...............
    ...............
    ....@@@@@.@@...
    ...@@@@@@@@@...
    ..@@@....@@@...
    ..@@......@@...
    ..@@...........
    ...@@@@@@@@....
    ....@@@@@@@@...
    ...........@@..
    ..@@.......@@..
    ..@@@.....@@@..
    ..@@@@@@@@@@...
    ..@@.@@@@@@....
    ...............
    ...............
    ...............
    ...............
    ...............

u+0074:
0x74:
    ...............
    ...............
    ...............
    ...............
    ...............
    ....@@.........
    ....@@.........
    ....@@.........
    .@@@@@@@@@@@...
    .@@@@@@@@@@@...
    ....@@.........
    ....@@.........
    ....@@.........
    ....@@.........
    ....@@.........
    ....@@.........
    ....@@......@..
    ....@@@....@@@.
    .....@@@@@@@@..
    ......@@@@@....
    ...............
    ...............
    ...............
    ...............
    ...............

u+0075:
0x75:
    ...............
    ...............
    ...............
    ...............
    ...............
    ...............
    ...............
    ...............
    @@@@...@@@@@...
    @@@@...@@@@@...
    ..@@......@@...
    ..@@......@@...
    ..@@......@@...
    ..@@......@@...
    ..@@......@@...
    ..@@......@@...
    ..@@......@@...
    ..@@@...@@@@...
    ...@@@@@@@@@@@.
    ....@@@@..@@@@.
    ...............
    ...............
    ...............
    ...............
    ...............

u+0076:
0x76:
    ...............
    ...............
    ...............
    ...............
    ...............
    ...............
    ...............
    ...............
    @@@@@@..@@@@@@.
    @@@@@@..@@@@@@.
    ..@@......@@...
    ..@@......@@...
    ...@@....@@....
    ...@@....@@....
    ....@@..@@.....
    ....@@..@@.....
    .....@@@@......
    .....@@@@......
    ......@@.......
    ......@@.......
    ...............
    ...............
    ...............
    ...............
    ...............

u+0077:
0x77:
    ...............
    ...............
    ...............
    ...............
    ...............
    ...............
    ...............
    ...............
    @@@@@.....@@@@@
    @@@@@.....@@@@@
    .@@.........@@.
    .@@....@....@@.
    ..@@..@@@..@@..
    ..@@..@@@..@@..
    ..@@..@@@..@@..
    ...@@.@.@.@@...
    ...@@@@.@@@@...
    ...@@@...@@@...
    ....@@...@@....
    ....@@...@@....
    ...............
    ...............
    ...............
    ...............
    ...............

u+0078:
0x78:
    ...............
    ...............
    ...............
    ...............
    ...............
    ...............
    ...............
    ...............
    .@@@@@...@@@@@.
    .@@@@@...@@@@@.
    ...@@.....@@...
    ....@@...@@....
    .....@@.@@.....
    ......@@@......
    ......@@@......
    .....@@.@@.....
    ....@@...@@....
    ...@@.....@@...
    .@@@@@...@@@@@.
    .@@@@@...@@@@@.
    ...............
    ...............
    ...............
    ...............
    ...............

u+0079:
0x79:
    ...............
    ...............
    ...............
    ...............
    ...............
    ...............
    ...............
    ...............
    @@@@@@..@@@@@@.
    @@@@@@..@@@@@@.
    ..@@......@@...
    ..@@......@@...
    ...@@....@@....
    ...@@....@@....
    ....@@..@@.....
    ....@@..@@.....
    .....@@.@......
    .....@@@@......
    ......@@.......
    ......@@.......
    .....@@........
    .....@@........
    ....@@.........
    @@@@@@@@.......
    @@@@@@@@.......

u+007a:
0x7a:
    ...............
    ...............
    ...............
    ...............
    ...............
    ...............
    ...............
    ...............
    ..@@@@@@@@@@...
    ..@@@@@@@@@@...
    ..@@.....@@....
    ..@@....@@.....
    .......@@......
    ......@@.......
    ......@@.......
    .....@@........
    ....@@....@@...
    ...@@.....@@...
    ..@@@@@@@@@@...
    ..@@@@@@@@@@...
    ...............
    ...............
    ...............
    ...............
    ...............

u+007b:
0x7b:
    ...............
    ...............
    ...............
    ...............
    ...............
    .........@@....
    .......@@@@....
    .......@@......
    ......@@.......
    ......@@.......
    ......@@.......
    ......@@.......
    ......@@.......
    ....@@@........
    ...@@@.........
    ....@@@........
    ......@@.......
    ......@@.......
    ......@@.......
    ......@@.......
    ......@@.......
    ......@@.......
    .......@@......
    .......@@@@....
    .........@@....

u+007c:
0x7c:
    ......@@.......
    ......@@.......
    ......@@.......
    ......@@.......
    ......@@.......
    ......@@.......
    ......@@.......
    ......@@.......
    ......@@.......
    ......@@.......
    ......@@.......
    ......@@.......
    ......@@.......
    ......@@.......
    ......@@.......
    ......@@.......
    ......@@.......
    ......@@.......
    ......@@.......
    ......@@.......
    ......@@.......
    ......@@.......
    ......@@.......
    ......@@.......
    ......@@.......

u+007d:
0x7d:
    ...............
    ...............
    ...............
    ...............
    ...............
    ....@@.........
    ....@@@@.......
    ......@@.......
    .......@@......
    .......@@......
    .......@@......
    .......@@......
    .......@@......
    ........@@@....
    .........@@@...
    ........@@@....
    .......@@......
    .......@@......
    .......@@......
    .......@@......
    .......@@......
    .......@@......
    ......@@.......
    ....@@@@.......
    ....@@.........

u+007e:
0x7e:
    ...............
    ...............
    ...............
    ...............
    ...............
    ....@@@@@.@@...
    ...@@.@@@@@....
    ...............
    ...............
    ...............
    ...............
    ...............
    ...............
    ...............
    ...............
    ...............
    ...............
    ...............
    ...............
    ...............
    ...............
    ...............
    ...............
    ...............
    ...............

u+2302:
0x7f:
    ...............
    ...............
    .......@.......
    ......@@@......
    .....@@.@@.....
    ....@@...@@....
    ...@@.....@@...
    ..@@.......@@..
    .@@.........@@.
    .@@.........@@.
    .@@.........@@.
    .@@.........@@.
    .@@.........@@.
    .@@.........@@.
    .@@.........@@.
    .@@.........@@.
    .@@.........@@.
    .@@.........@@.
    .@@@@@@@@@@@@@.
    .@@@@@@@@@@@@@.
    ...............
    ...............
    ...............
    ...............
    ...............

u+00c7:
0x80:
    ...............
    ...............
    ...............
    ...............
    ...............
    .....@@@@@.@@..
    ...@@@@@@@@@@..
    ..@@@@...@@@@..
    ..@@.......@@..
    .@@@.......@@..
    .@@............
    .@@............
    .@@............
    .@@............
    .@@............
    .@@@...........
    ..@@........@..
    ..@@@@....@@@@.
    ...@@@@@@@@@@..
    .....@@@@@@....
    ......@........
    ......@@@......
    ........@@.....
    ....@@..@@.....
    .....@@@@......

u+00fc:
0x81:
    ...............
    ...............
    ...............
    ..@@@...@@@....
    ..@@@...@@@....
    ..@@@...@@@....
    ...............
    ...............
    @@@@....@@@@...
    @@@@....@@@@...
    ..@@......@@...
    ..@@......@@...
    ..@@......@@...
    ..@@......@@...
    ..@@......@@...
    ..@@......@@...
    ..@@......@@...
    ..@@@...@@@@...
    ...@@@@@@@@@@@.
    ....@@@@..@@@@.
    ...............
    ...............
    ...............
    ...............
    ...............

u+00e9:
0x82:
    ...............
    ...............
    ...............
    .........@@....
    ........@@@....
    ......@@@......
    .....@@........
    ...............
    .....@@@@......
    ...@@@@@@@@....
    ..@@@....@@@...
    ..@@......@@...
    .@@........@@..
    .@@@@@@@@@@@@..
    .@@@@@@@@@@@@..
    .@@............
    ..@@...........
    ..@@@.....@@...
    ...@@@@@@@@@@..
    .....@@@@@@....
    ...............
    ...............
    ...............
    ...............
    ...............

u+00e2:
0x83:
    ...............
    ...............
    ...............
    ......@@.......
    .....@@@@......
    ....@@..@@.....
    ...@@....@@....
    ...............
    ....@@@@@@.....
    ..@@@@@@@@@....
    ...@.....@@@...
    ..........@@...
    ....@@@@@.@@...
    ..@@@@@@@@@@...
    ..@@.....@@@...
    .@@.......@@...
    .@@.......@@...
    ..@@....@@@@...
    ..@@@@@@@@@@@@.
    ....@@@@..@@@@.
    ...............
    ...............
    ...............
    ...............
    ...............

u+00e4:
0x84:
    ...............
    ...............
    ...............
    ...@@@...@@@...
    ...@@@...@@@...
    ...@@@...@@@...
    ...............
    ...............
    ....@@@@@@.....
    ..@@@@@@@@@....
    ...@.....@@@...
    ..........@@...
    ....@@@@@.@@...
    ..@@@@@@@@@@...
    ..@@.....@@@...
    .@@.......@@...
    .@@.......@@...
    ..@@....@@@@...
    ..@@@@@@@@@@@@.
    ....@@@@..@@@@.
    ...............
    ...............
    ...............
    ...............
    ...............

u+00e0:
0x85:
    ...............
    ...............
    ...............
    ...@@..........
    ...@@@.........
    .....@@@.......
    .......@@......
    ...............
    ....@@@@@@.....
    ..@@@@@@@@@....
    ...@.....@@@...
    ..........@@...
    ....@@@@@.@@...
    ..@@@@@@@@@@...
    ..@@.....@@@...
    .@@.......@@...
    .@@.......@@...
    ..@@....@@@@...
    ..@@@@@@@@@@@@.
    ....@@@@..@@@@.
    ...............
    ...............
    ...............
    ...............
    ...............

u+00e5:
0x86:
    ...............
    ......@@@......
    .....@@@@@.....
    ....@@...@@....
    ....@@...@@....
    ....@@...@@....
    .....@@@@@.....
    ......@@@......
    ....@@@@@@.....
    ..@@@@@@@@@....
    ...@.....@@@...
    ..........@@...
    ....@@@@@.@@...
    ..@@@@@@@@@@...
    ..@@.....@@@...
    .@@.......@@...
    .@@.......@@...
    ..@@....@@@@...
    ..@@@@@@@@@@@@.
    ....@@@@..@@@@.
    ...............
    ...............
    ...............
    ...............
    ...............

u+00e7:
0x87:
    ...............
    ...............
    ...............
    ...............
    ...............
    ...............
    ...............
    ...............
    .....@@@@..@@..
    ...@@@@@@@@@@..
    ..@@@....@@@@..
    ..@@.......@@..
    .@@........@@..
    .@@............
    .@@............
    .@@............
    ..@@.......@...
    ..@@@.....@@@..
    ...@@@@@@@@@...
    .....@@@@@.....
    ......@........
    ......@@@......
    ........@@.....
    ....@@..@@.....
    .....@@@@......

u+00ea:
0x88:
    ...............
    ...............
    ...............
    ......@@.......
    .....@@@@......
    ....@@..@@.....
    ...@@....@@....
    ...............
    .....@@@@......
    ...@@@@@@@@....
    ..@@@....@@@...
    ..@@......@@...
    .@@........@@..
    .@@@@@@@@@@@@..
    .@@@@@@@@@@@@..
    .@@............
    ..@@...........
    ..@@@.....@@...
    ...@@@@@@@@@@..
    .....@@@@@@....
    ...............
    ...............
    ...............
    ...............
    ...............

u+00eb:
0x89:
    ...............
    ...............
    ...............
    ...@@@...@@@...
    ...@@@...@@@...
    ...@@@...@@@...
    ...............
    ...............
    .....@@@@......
    ...@@@@@@@@....
    ..@@@....@@@...
    ..@@......@@...
    .@@........@@..
    .@@@@@@@@@@@@..
    .@@@@@@@@@@@@..
    .@@............
    ..@@...........
    ..@@@.....@@...
    ...@@@@@@@@@@..
    .....@@@@@@....
    ...............
    ...............
    ...............
    ...............
    ...............

u+00e8:
0x8a:
    ...............
    ...............
    ...............
    ...@@..........
    ...@@@.........
    .....@@@.......
    .......@@......
    ...............
    .....@@@@......
    ...@@@@@@@@....
    ..@@@....@@@...
    ..@@......@@...
    .@@........@@..
    .@@@@@@@@@@@@..
    .@@@@@@@@@@@@..
    .@@............
    ..@@...........
    ..@@@.....@@...
    ...@@@@@@@@@@..
    .....@@@@@@....
    ...............
    ...............
    ...............
    ...............
    ...............

u+00ef:
0x8b:
    ...............
    ...............
    ...............
    .@@@...@@@.....
    .@@@...@@@.....
    .@@@...@@@.....
    ...............
    ...............
    ..@@@@@@.......
    ..@@@@@@.......
    ......@@.......
    ......@@.......
    ......@@.......
    ......@@.......
    ......@@.......
    ......@@.......
    ......@@.......
    ......@@.......
    .@@@@@@@@@@@@..
    .@@@@@@@@@@@@..
    ...............
    ...............
    ...............
    ...............
    ...............

u+00ee:
0x8c:
    ...............
    ...............
    ...............
    .....@@........
    ....@@@@.......
    ...@@..@@......
    ..@@....@@.....
    ...............
    ..@@@@@@.......
    ..@@@@@@.......
    ......@@.......
    ......@@.......
    ......@@.......
    ......@@.......
    ......@@.......
    ......@@.......
    ......@@.......
    ......@@.......
    .@@@@@@@@@@@@..
    .@@@@@@@@@@@@..
    ...............
    ...............
    ...............
    ...............
    ...............

u+00ec:
0x8d:
    ...............
    ...............
    ...............
    ..@@...........
    ..@@@..........
    ....@@@........
    ......@@.......
    ...............
    ..@@@@@@.......
    ..@@@@@@.......
    ......@@.......
    ......@@.......
    ......@@.......
    ......@@.......
    ......@@.......
    ......@@.......
    ......@@.......
    ......@@.......
    .@@@@@@@@@@@@..
    .@@@@@@@@@@@@..
    ...............
    ...............
    ...............
    ...............
    ...............

u+00c4:
0x8e:
    ...............
    ..@@@...@@@....
    ..@@@...@@@....
    ..@@@...@@@....
    ...............
    ...@@@@@@......
    ...@@@@@@......
    .....@@@@@.....
    .....@@.@@.....
    ....@@..@@.....
    ....@@...@@....
    ....@@...@@....
    ...@@.....@@...
    ...@@@@@@@@@...
    ...@@@@@@@@@...
    ...@@.....@@...
    ..@@.......@@..
    ..@@.......@@..
    @@@@@@...@@@@@@
    @@@@@@...@@@@@@
    ...............
    ...............
    ...............
    ...............
    ...............

u+00c5:
0x8f:
    ...............
    ......@@@......
    .....@@@@@.....
    ....@@...@@....
    ....@@...@@....
    .....@@@@@.....
    ......@@@......
    ......@@@......
    .....@@@@@.....
    .....@@.@@.....
    .....@@.@@.....
    ....@@...@@....
    ....@@...@@....
    ...@@.....@@...
    ...@@@@@@@@@...
    ...@@@@@@@@@...
    ..@@@.....@@@..
    ..@@.......@@..
    @@@@@@...@@@@@@
    @@@@@@...@@@@@@
    ...............
    ...............
    ...............
    ...............
    ...............

u+00c9:
0x90:
    ...............
    ........@@@@...
    .......@@@.....
    ......@@.......
    ...............
    .@@@@@@@@@@@@..
    .@@@@@@@@@@@@..
    ...@@......@@..
    ...@@......@@..
    ...@@...@@.@@..
    ...@@...@@.....
    ...@@@@@@@.....
    ...@@@@@@@.....
    ...@@...@@.....
    ...@@...@@.....
    ...@@......@@..
    ...@@......@@..
    ...@@......@@..
    .@@@@@@@@@@@@..
    .@@@@@@@@@@@@..
    ...............
    ...............
    ...............
    ...............
    ...............

u+00e6:
0x91:
    ...............
    ...............
    ...............
    ...............
    ...............
    ...............
    ...............
    ...............
    ...@@@..@@@@...
    .@@@@@@@@@@@@..
    .@@..@@@@..@@@.
    ......@@....@@.
    ......@@....@@.
    ..@@@@@@@@@@@@.
    .@@@@@@@@@@@@@.
    @@@...@@.......
    @@....@@.......
    @@@..@@@@...@@.
    .@@@@@@@@@@@@..
    ..@@@...@@@@...
    ...............
    ...............
    ...............
    ...............
    ...............

u+00c6:
0x92:
    ...............
    ...............
    ...............
    ...............
    ...............
    ...@@@@@@@@@@@@
    ...@@@@@@@@@@@@
    .....@@@@....@@
    .....@.@@....@@
    ....@@.@@.@@.@@
    ....@@.@@.@@...
    ....@@.@@@@@...
    ...@@..@@@@@...
    ...@@@@@@.@@...
    ...@@@@@@.@@...
    ...@@..@@....@@
    ..@@...@@....@@
    ..@@...@@....@@
    @@@@@.@@@@@@@@@
    @@@@@.@@@@@@@@@
    ...............
    ...............
    ...............
    ...............
    ...............

u+00f4:
0x93:
    ...............
    ...............
    ...............
    ......@@.......
    .....@@@@......
    ....@@..@@.....
    ...@@....@@....
    ...............
    .....@@@@......
    ...@@@@@@@@....
    ..@@@....@@@...
    ..@@......@@...
    .@@........@@..
    .@@........@@..
    .@@........@@..
    .@@........@@..
    ..@@......@@...
    ..@@@....@@@...
    ...@@@@@@@@....
    .....@@@@......
    ...............
    ...............
    ...............
    ...............
    ...............

u+00f6:
0x94:
    ...............
    ...............
    ...............
    ...@@@...@@@...
    ...@@@...@@@...
    ...@@@...@@@...
    ...............
    ...............
    .....@@@@......
    ...@@@@@@@@....
    ..@@@....@@@...
    ..@@......@@...
    .@@........@@..
    .@@........@@..
    .@@........@@..
    .@@........@@..
    ..@@......@@...
    ..@@@....@@@...
    ...@@@@@@@@....
    .....@@@@......
    ...............
    ...............
    ...............
    ...............
    ...............

u+00f2:
0x95:
    ...............
    ...............
    ...............
    ...@@..........
    ...@@@.........
    .....@@@.......
    .......@@......
    ...............
    .....@@@@......
    ...@@@@@@@@....
    ..@@@....@@@...
    ..@@......@@...
    .@@........@@..
    .@@........@@..
    .@@........@@..
    .@@........@@..
    ..@@......@@...
    ..@@@....@@@...
    ...@@@@@@@@....
    .....@@@@......
    ...............
    ...............
    ...............
    ...............
    ...............

u+00fb:
0x96:
    ...............
    ...............
    ...............
    ......@@.......
    .....@@@@......
    ....@@..@@.....
    ...@@....@@....
    ...............
    @@@@....@@@@...
    @@@@....@@@@...
    ..@@......@@...
    ..@@......@@...
    ..@@......@@...
    ..@@......@@...
    ..@@......@@...
    ..@@......@@...
    ..@@......@@...
    ..@@@...@@@@...
    ...@@@@@@@@@@@.
    ....@@@@..@@@@.
    ...............
    ...............
    ...............
    ...............
    ...............

u+00f9:
0x97:
    ...............
    ...............
    ...............
    ...@@..........
    ...@@@.........
    .....@@@.......
    .......@@......
    ...............
    @@@@....@@@@...
    @@@@....@@@@...
    ..@@......@@...
    ..@@......@@...
    ..@@......@@...
    ..@@......@@...
    ..@@......@@...
    ..@@......@@...
    ..@@......@@...
    ..@@@...@@@@...
    ...@@@@@@@@@@@.
    ....@@@@..@@@@.
    ...............
    ...............
    ...............
    ...............
    ...............

u+00ff:
0x98:
    ...............
    ...............
    ...............
    ...@@@...@@@...
    ...@@@...@@@...
    ...@@@...@@@...
    ...............
    ...............
    @@@@@@..@@@@@@.
    @@@@@@..@@@@@@.
    ..@@......@@...
    ..@@......@@...
    ...@@....@@....
    ...@@....@@....
    ....@@..@@.....
    ....@@..@@.....
    .....@@.@......
    .....@@@@......
    ......@@.......
    ......@@.......
    .....@@........
    .....@@........
    ....@@.........
    @@@@@@@@.......
    @@@@@@@@.......

u+00d6:
0x99:
    ...............
    ...@@@...@@@...
    ...@@@...@@@...
    ...@@@...@@@...
    ...............
    ....@@@@@@.....
    ..@@@@@@@@@@...
    .@@@@....@@@@..
    .@@........@@..
    @@@........@@@.
    @@..........@@.
    @@..........@@.
    @@..........@@.
    @@..........@@.
    @@..........@@.
    @@@........@@@.
    .@@........@@..
    .@@@@....@@@@..
    ..@@@@@@@@@@...
    ....@@@@@@.....
    ...............
    ...............
    ...............
    ...............
    ...............

u+00dc:
0x9a:
    ...............
    ...@@@...@@@...
    ...@@@...@@@...
    ...@@@...@@@...
    ...............
    @@@@@@...@@@@@@
    @@@@@@...@@@@@@
    ..@@.......@@..
    ..@@.......@@..
    ..@@.......@@..
    ..@@.......@@..
    ..@@.......@@..
    ..@@.......@@..
    ..@@.......@@..
    ..@@.......@@..
    ..@@.......@@..
    ..@@.......@@..
    ...@@.....@@...
    ...@@@@@@@@@...
    .....@@@@@.....
    ...............
    ...............
    ...............
    ...............
    ...............

u+00f8:
0x9b:
    ...............
    ...............
    ...............
    ...............
    ...............
    ...............
    ...............
    ...............
    .....@@@@..@@..
    ...@@@@@@@@@...
    ..@@@....@@@...
    ..@@....@@@@...
    .@@....@@..@@..
    .@@...@@...@@..
    .@@...@@...@@..
    .@@..@@....@@..
    ..@@@@....@@...
    ..@@@....@@@...
    ..@@@@@@@@@....
    .@@..@@@@......
    .@.............
    ...............
    ...............
    ...............
    ...............

u+00a3:
0x9c:
    ...............
    ...............
    ...............
    ...............
    ...............
    ......@@@@.....
    ....@@@@@@@....
    ....@@...@@....
    ...@@..........
    ...@@..........
    ....@@.........
    ....@@.........
    ..@@@@@@@@@....
    ..@@@@@@@@@....
    .....@@........
    .....@@........
    ....@@.........
    ....@@.....@@..
    ...@@@@@@@@@@..
    ...@@..@@@@....
    ...............
    ...............
    ...............
    ...............
    ...............

u+00d8:
0x9d:
    ...............
    ...............
    ...............
    ...............
    ............@..
    ....@@@@@@.@@..
    ..@@@@@@@@@@...
    .@@@@....@@@@..
    .@@......@@@@..
    @@@.....@@.@@@.
    @@.....@@...@@.
    @@.....@@...@@.
    @@....@@....@@.
    @@...@@.....@@.
    @@...@@.....@@.
    @@@.@@.....@@@.
    .@@@@......@@..
    .@@@@....@@@@..
    ..@@@@@@@@@@...
    .@@.@@@@@@.....
    .@.............
    ...............
    ...............
    ...............
    ...............

u+00d7:
0x9e:
    ...............
    ...............
    ...............
    ...............
    ...............
    ...............
    ...............
    ...............
    ...............
    ...@......@....
    ..@@@....@@@...
    ...@@@..@@@....
    ....@@@@@@.....
    .....@@@@......
    .....@@@@......
    ....@@@@@@.....
    ...@@@..@@@....
    ..@@@....@@@...
    ...@......@....
    ...............
    ...............
    ...............
    ...............
    ...............
    ...............

u+0192:
0x9f:
    ...............
    ...............
    ...............
    ...............
    ...............
    ..........@@@@.
    ........@@@@@@.
    ........@@.....
    .......@@......
    .......@@......
    .......@@......
    ....@@@@@@@@...
    ....@@@@@@@@...
    .......@@......
    .......@@......
    .......@@......
    ......@@.......
    ......@@.......
    ......@@.......
    ......@@.......
    ......@@.......
    .....@@........
    .@@@@@@........
    .@@@@..........
    ...............

u+00e1:
0xa0:
    ...............
    ...............
    ...............
    .........@@....
    ........@@@....
    ......@@@......
    .....@@........
    ...............
    ....@@@@@@.....
    ..@@@@@@@@@....
    ...@.....@@@...
    ..........@@...
    ....@@@@@.@@...
    ..@@@@@@@@@@...
    ..@@.....@@@...
    .@@.......@@...
    .@@.......@@...
    ..@@....@@@@...
    ..@@@@@@@@@@@@.
    ....@@@@..@@@@.
    ...............
    ...............
    ...............
    ...............
    ...............

u+00ed:
0xa1:
    ...............
    ...............
    ...............
    ........@@.....
    .......@@@.....
    .....@@@.......
    ....@@.........
    ...............
    ..@@@@@@.......
    ..@@@@@@.......
    ......@@.......
    ......@@.......
    ......@@.......
    ......@@.......
    ......@@.......
    ......@@.......
    ......@@.......
    ......@@.......
    .@@@@@@@@@@@@..
    .@@@@@@@@@@@@..
    ...............
    ...............
    ...............
    ...............
    ...............

u+00f3:
0xa2:
    ...............
    ...............
    ...............
    .........@@....
    ........@@@....
    ......@@@......
    .....@@........
    ...............
    .....@@@@......
    ...@@@@@@@@....
    ..@@@....@@@...
    ..@@......@@...
    .@@........@@..
    .@@........@@..
    .@@........@@..
    .@@........@@..
    ..@@......@@...
    ..@@@....@@@...
    ...@@@@@@@@....
    .....@@@@......
    ...............
    ...............
    ...............
    ...............
    ...............

u+00fa:
0xa3:
    ...............
    ...............
    ...............
    .........@@....
    ........@@@....
    ......@@@......
    .....@@........
    ...............
    @@@@....@@@@...
    @@@@....@@@@...
    ..@@......@@...
    ..@@......@@...
    ..@@......@@...
    ..@@......@@...
    ..@@......@@...
    ..@@......@@...
    ..@@......@@...
    ..@@@...@@@@...
    ...@@@@@@@@@@@.
    ....@@@@..@@@@.
    ...............
    ...............
    ...............
    ...............
    ...............

u+00f1:
0xa4:
    ...............
    ...............
    ...............
    ...............
    ...@@@@@.@@....
    ..@@.@@@@@.....
    ...............
    ...............
    @@@@..@@@@.....
    @@@@@@@@@@@....
    ..@@@@...@@@...
    ..@@......@@...
    ..@@......@@...
    ..@@......@@...
    ..@@......@@...
    ..@@......@@...
    ..@@......@@...
    ..@@......@@...
    @@@@@@..@@@@@@.
    @@@@@@..@@@@@@.
    ...............
    ...............
    ...............
    ...............
    ...............

u+00d1:
0xa5:
    ...............
    ....@@@@@.@@...
    ...@@.@@@@@....
    ...............
    ...............
    @@@@....@@@@@@@
    @@@@@...@@@@@@@
    ..@@@......@@..
    ..@@@@.....@@..
    ..@@.@@....@@..
    ..@@.@@....@@..
    ..@@..@@...@@..
    ..@@...@@..@@..
    ..@@...@@..@@..
    ..@@....@@.@@..
    ..@@.....@.@@..
    ..@@.....@@@@..
    ..@@......@@@..
    @@@@@@@...@@@..
    @@@@@@@....@@..
    ...............
    ...............
    ...............
    ...............
    ...............

u+00aa:
0xa6:
    ...............
    ...............
    ...............
    ...............
    ...............
    .....@@@@@.....
    ....@@@@@@@....
    .........@@....
    ....@@@@.@@....
    ...@@@@@@@@....
    ...@@....@@....
    ...@@....@@....
    ...@@@@@@@@@...
    ....@@@@.@@@...
    ...............
    ...............
    ...@@@@@@@@@...
    ...@@@@@@@@@...
    ...............
    ...............
    ...............
    ...............
    ...............
    ...............
    ...............

u+00ba:
0xa7:
    ...............
    ...............
    ...............
    ...............
    ...............
    .....@@@@......
    ...@@@@@@@@....
    ...@@....@@....
    ..@@......@@...
    ..@@......@@...
    ..@@......@@...
    ...@@....@@....
    ...@@@@@@@@....
    .....@@@@......
    ...............
    ...............
    ..@@@@@@@@@@...
    ..@@@@@@@@@@...
    ...............
    ...............
    ...............
    ...............
    ...............
    ...............
    ...............

u+00bf:
0xa8:
    ...............
    ...............
    ...............
    ...............
    ...............
    .......@@@.....
    ......@@@@@....
    ......@@@@@....
    .......@@@.....
    ...............
    ........@@.....
    ........@@.....
    .....@@@@@.....
    ....@@@@.......
    ...@@@.........
    ...@@..........
    ...@@..........
    ....@@....@@...
    ....@@@@@@@@...
    ......@@@@@@...
    ...............
    ...............
    ...............
    ...............
    ...............

u+00ae:
0xa9:
    ...............
    ...............
    ...............
    ...............
    ...............
    .....@@@@@.....
    ...@@@...@@@...
    ..@@.......@@..
    .@@.........@@.
    .@..@@@@@@...@.
    @@...@@..@@..@@
    @....@@..@@...@
    @....@@@@@....@
    @....@@.@@....@
    @@...@@..@@..@@
    .@..@@@@.@@..@.
    .@@.........@@.
    ..@@.......@@..
    ...@@@...@@@...
    .....@@@@@.....
    ...............
    ...............
    ...............
    ...............
    ...............

u+00ac:
0xaa:
    ...............
    ...............
    ...............
    ...............
    ...............
    ...............
    ...............
    ...............
    ...............
    ...............
    ...............
    .@@@@@@@@@@@@..
    .@@@@@@@@@@@@..
    ...........@@..
    ...........@@..
    ...........@@..
    ...........@@..
    ...............
    ...............
    ...............
    ...............
    ...............
    ...............
    ...............
    ...............

u+00bd:
0xab:
    ...............
    ..@@@..........
    .@.@@..........
    ...@@..........
    ...@@..........
    ...@@..........
    ...@@..........
    ...@@..........
    ...@@..........
    .@@@@@@...@@@..
    ........@@@....
    .....@@@@......
    ...@@@.........
    .@@@...@@@@....
    ......@@..@@...
    ......@...@@...
    ..........@@...
    .........@@....
    ........@@.....
    .......@@......
    ......@@...@...
    ......@@@@@@...
    ...............
    ...............
    ...............

u+00bc:
0xac:
    ...............
    ..@@@..........
    .@.@@..........
    ...@@..........
    ...@@..........
    ...@@..........
    ...@@..........
    ...@@..........
    ...@@..........
    .@@@@@@...@@@..
    ........@@@....
    .....@@@@......
    ...@@@.........
    .@@@....@@@....
    .......@@@@....
    .......@.@@....
    ......@@.@@....
    ......@..@@....
    .....@@..@@....
    .....@@@@@@@...
    .........@@....
    .........@@....
    ...............
    ...............
    ...............

u+00a1:
0xad:
    ...............
    ...............
    ...............
    ...............
    ...............
    ......@@@......
    .....@@@@@.....
    .....@@@@@.....
    ......@@@......
    ...............
    ......@@.......
    ......@@.......
    ......@@.......
    ......@@.......
    ......@@.......
    ......@@.......
    ......@@.......
    ......@@.......
    ......@@.......
    ......@@.......
    ...............
    ...............
    ...............
    ...............
    ...............

u+00ab:
0xae:
    ...............
    ...............
    ...............
    ...............
    ...............
    ...............
    ...............
    ...............
    ...............
    ...............
    ......@...@....
    .....@@..@@....
    .....@@..@@....
    ....@@..@@.....
    ....@@..@@.....
    ....@@..@@.....
    .....@@..@@....
    .....@@..@@....
    ......@...@....
    ...............
    ...............
    ...............
    ...............
    ...............
    ...............

u+00bb:
0xaf:
    ...............
    ...............
    ...............
    ...............
    ...............
    ...............
    ...............
    ...............
    ...............
    ...............
    ....@...@......
    ....@@..@@.....
    ....@@..@@.....
    .....@@..@@....
    .....@@..@@....
    .....@@..@@....
    ....@@..@@.....
    ....@@..@@.....
    ....@...@......
    ...............
    ...............
    ...............
    ...............
    ...............
    ...............

u+2591:
0xb0:
    @@@..@@@..@@@..
    @@@..@@@..@@@..
    @@@..@@@..@@@..
    @@@..@@@..@@@..
    ...............
    ...............
    ...............
    ...............
    @@@..@@@..@@@..
    @@@..@@@..@@@..
    @@@..@@@..@@@..
    @@@..@@@..@@@..
    @@@..@@@..@@@..
    ...............
    ...............
    ...............
    ...............
    @@@..@@@..@@@..
    @@@..@@@..@@@..
    @@@..@@@..@@@..
    @@@..@@@..@@@..
    ...............
    ...............
    ...............
    ...............

u+2592:
0xb1:
    @@...@@...@@...
    @@...@@...@@...
    @@...@@...@@...
    @@...@@...@@...
    ..@@@..@@@..@@@
    ..@@@..@@@..@@@
    ..@@@..@@@..@@@
    ..@@@..@@@..@@@
    @@...@@...@@...
    @@...@@...@@...
    @@...@@...@@...
    @@...@@...@@...
    ..@@@..@@@..@@@
    ..@@@..@@@..@@@
    ..@@@..@@@..@@@
    ..@@@..@@@..@@@
    ..@@@..@@@..@@@
    @@...@@...@@...
    @@...@@...@@...
    @@...@@...@@...
    @@...@@...@@...
    ..@@@..@@@..@@@
    ..@@@..@@@..@@@
    ..@@@..@@@..@@@
    ..@@@..@@@..@@@

u+2593:
0xb2:
    @@@@@@@@@@@@@@@
    @@@@@@@@@@@@@@@
    @@@@@@@@@@@@@@@
    @@@@@@@@@@@@@@@
    @@@..@@@..@@@..
    @@@..@@@..@@@..
    @@@..@@@..@@@..
    @@@..@@@..@@@..
    @@@@@@@@@@@@@@@
    @@@@@@@@@@@@@@@
    @@@@@@@@@@@@@@@
    @@@@@@@@@@@@@@@
    @@@@@@@@@@@@@@@
    @@@..@@@..@@@..
    @@@..@@@..@@@..
    @@@..@@@..@@@..
    @@@..@@@..@@@..
    @@@@@@@@@@@@@@@
    @@@@@@@@@@@@@@@
    @@@@@@@@@@@@@@@
    @@@@@@@@@@@@@@@
    @@@..@@@..@@@..
    @@@..@@@..@@@..
    @@@..@@@..@@@..
    @@@..@@@..@@@..

u+2502:
0xb3:
    .......@.......
    .......@.......
    .......@.......
    .......@.......
    .......@.......
    .......@.......
    .......@.......
    .......@.......
    .......@.......
    .......@.......
    .......@.......
    .......@.......
    .......@.......
    .......@.......
    .......@.......
    .......@.......
    .......@.......
    .......@.......
    .......@.......
    .......@.......
    .......@.......
    .......@.......
    .......@.......
    .......@.......
    .......@.......

u+2524:
0xb4:
    .......@.......
    .......@.......
    .......@.......
    .......@.......
    .......@.......
    .......@.......
    .......@.......
    .......@.......
    .......@.......
    .......@.......
    .......@.......
    .......@.......
    @@@@@@@@.......
    .......@.......
    .......@.......
    .......@.......
    .......@.......
    .......@.......
    .......@.......
    .......@.......
    .......@.......
    .......@.......
    .......@.......
    .......@.......
    .......@.......

u+00c1:
0xb5:
    ...............
    ........@@@@...
    .......@@@.....
    ......@@.......
    ...............
    ...@@@@@@......
    ...@@@@@@......
    .....@@@@@.....
    .....@@.@@.....
    ....@@..@@.....
    ....@@...@@....
    ....@@...@@....
    ...@@.....@@...
    ...@@@@@@@@@...
    ...@@@@@@@@@...
    ...@@.....@@...
    ..@@.......@@..
    ..@@.......@@..
    @@@@@@...@@@@@@
    @@@@@@...@@@@@@
    ...............
    ...............
    ...............
    ...............
    ...............

u+00c2:
0xb6:
    ...............
    ......@@.......
    ....@@@@@@.....
    ...@@....@@....
    ...............
    ...@@@@@@......
    ...@@@@@@......
    .....@@@@@.....
    .....@@.@@.....
    ....@@..@@.....
    ....@@...@@....
    ....@@...@@....
    ...@@.....@@...
    ...@@@@@@@@@...
    ...@@@@@@@@@...
    ...@@.....@@...
    ..@@.......@@..
    ..@@.......@@..
    @@@@@@...@@@@@@
    @@@@@@...@@@@@@
    ...............
    ...............
    ...............
    ...............
    ...............

u+00c0:
0xb7:
    ...............
    ...@@@@........
    .....@@@.......
    .......@@......
    ...............
    ...@@@@@@......
    ...@@@@@@......
    .....@@@@@.....
    .....@@.@@.....
    ....@@..@@.....
    ....@@...@@....
    ....@@...@@....
    ...@@.....@@...
    ...@@@@@@@@@...
    ...@@@@@@@@@...
    ...@@.....@@...
    ..@@.......@@..
    ..@@.......@@..
    @@@@@@...@@@@@@
    @@@@@@...@@@@@@
    ...............
    ...............
    ...............
    ...............
    ...............

u+00a9:
0xb8:
    ...............
    ...............
    ...............
    ...............
    ...............
    .....@@@@@.....
    ...@@@...@@@...
    ..@@.......@@..
    .@@.........@@.
    .@...@@@@@...@.
    @@..@@..@@...@@
    @...@@..@@....@
    @...@@........@
    @...@@........@
    @@..@@...@@..@@
    .@...@@@@@...@.
    .@@.........@@.
    ..@@.......@@..
    ...@@@...@@@...
    .....@@@@@.....
    ...............
    ...............
    ...............
    ...............
    ...............

u+2563:
0xb9:
    .....@...@.....
    .....@...@.....
    .....@...@.....
    .....@...@.....
    .....@...@.....
    .....@...@.....
    .....@...@.....
    .....@...@.....
    .....@...@.....
    .....@...@.....
    @@@@@@...@.....
    .........@.....
    .........@.....
    .........@.....
    @@@@@@...@.....
    .....@...@.....
    .....@...@.....
    .....@...@.....
    .....@...@.....
    .....@...@.....
    .....@...@.....
    .....@...@.....
    .....@...@.....
    .....@...@.....
    .....@...@.....

u+2551:
0xba:
    .....@...@.....
    .....@...@.....
    .....@...@.....
    .....@...@.....
    .....@...@.....
    .....@...@.....
    .....@...@.....
    .....@...@.....
    .....@...@.....
    .....@...@.....
    .....@...@.....
    .....@...@.....
    .....@...@.....
    .....@...@.....
    .....@...@.....
    .....@...@.....
    .....@...@.....
    .....@...@.....
    .....@...@.....
    .....@...@.....
    .....@...@.....
    .....@...@.....
    .....@...@.....
    .....@...@.....
    .....@...@.....

u+2557:
0xbb:
    ...............
    ...............
    ...............
    ...............
    ...............
    ...............
    ...............
    ...............
    ...............
    ...............
    @@@@@@@@@@.....
    .........@.....
    .........@.....
    .........@.....
    @@@@@@...@.....
    .....@...@.....
    .....@...@.....
    .....@...@.....
    .....@...@.....
    .....@...@.....
    .....@...@.....
    .....@...@.....
    .....@...@.....
    .....@...@.....
    .....@...@.....

u+255d:
0xbc:
    .....@...@.....
    .....@...@.....
    .....@...@.....
    .....@...@.....
    .....@...@.....
    .....@...@.....
    .....@...@.....
    .....@...@.....
    .....@...@.....
    .....@...@.....
    @@@@@@...@.....
    .........@.....
    .........@.....
    .........@.....
    @@@@@@@@@@.....
    ...............
    ...............
    ...............
    ...............
    ...............
    ...............
    ...............
    ...............
    ...............
    ...............

u+00a2:
0xbd:
    ...............
    ...............
    ...............
    ...............
    ...............
    ......@@.......
    ......@@.......
    ......@@.......
    .....@@@@.@@...
    ...@@@@@@@@@...
    ...@@....@@@...
    ..@@......@@...
    ..@@...........
    ..@@...........
    ..@@...........
    ...@@.....@@...
    ...@@@@@@@@@...
    .....@@@@@.....
    ......@@.......
    ......@@.......
    ......@@.......
    ......@@.......
    ...............
    ...............
    ...............

u+00a5:
0xbe:
    ...............
    ...............
    ...............
    ...............
    ...............
    @@@@@@..@@@@@@.
    @@@@@@..@@@@@@.
    ..@@......@@...
    ...@@....@@....
    @@@@@....@@@@@.
    @@@@@@..@@@@@@.
    ....@@..@@.....
    .....@@@@......
    @@@@@@@@@@@@@@.
    @@@@@@@@@@@@@@.
    ......@@.......
    ......@@.......
    ......@@.......
    ...@@@@@@@@....
    ...@@@@@@@@....
    ...............
    ...............
    ...............
    ...............
    ...............

u+2510:
0xbf:
    ...............
    ...............
    ...............
    ...............
    ...............
    ...............
    ...............
    ...............
    ...............
    ...............
    ...............
    ...............
    @@@@@@@@.......
    .......@.......
    .......@.......
    .......@.......
    .......@.......
    .......@.......
    .......@.......
    .......@.......
    .......@.......
    .......@.......
    .......@.......
    .......@.......
    .......@.......

u+2514:
0xc0:
    .......@.......
    .......@.......
    .......@.......
    .......@.......
    .......@.......
    .......@.......
    .......@.......
    .......@.......
    .......@.......
    .......@.......
    .......@.......
    .......@.......
    .......@@@@@@@@
    ...............
    ...............
    ...............
    ...............
    ...............
    ...............
    ...............
    ...............
    ...............
    ...............
    ...............
    ...............

u+2534:
0xc1:
    .......@.......
    .......@.......
    .......@.......
    .......@.......
    .......@.......
    .......@.......
    .......@.......
    .......@.......
    .......@.......
    .......@.......
    .......@.......
    .......@.......
    @@@@@@@@@@@@@@@
    ...............
    ...............
    ...............
    ...............
    ...............
    ...............
    ...............
    ...............
    ...............
    ...............
    ...............
    ...............

u+252c:
0xc2:
    ...............
    ...............
    ...............
    ...............
    ...............
    ...............
    ...............
    ...............
    ...............
    ...............
    ...............
    ...............
    @@@@@@@@@@@@@@@
    .......@.......
    .......@.......
    .......@.......
    .......@.......
    .......@.......
    .......@.......
    .......@.......
    .......@.......
    .......@.......
    .......@.......
    .......@.......
    .......@.......

u+251c:
0xc3:
    .......@.......
    .......@.......
    .......@.......
    .......@.......
    .......@.......
    .......@.......
    .......@.......
    .......@.......
    .......@.......
    .......@.......
    .......@.......
    .......@.......
    .......@@@@@@@@
    .......@.......
    .......@.......
    .......@.......
    .......@.......
    .......@.......
    .......@.......
    .......@.......
    .......@.......
    .......@.......
    .......@.......
    .......@.......
    .......@.......

u+2500:
0xc4:
    ...............
    ...............
    ...............
    ...............
    ...............
    ...............
    ...............
    ...............
    ...............
    ...............
    ...............
    ...............
    @@@@@@@@@@@@@@@
    ...............
    ...............
    ...............
    ...............
    ...............
    ...............
    ...............
    ...............
    ...............
    ...............
    ...............
    ...............

u+253c:
0xc5:
    .......@.......
    .......@.......
    .......@.......
    .......@.......
    .......@.......
    .......@.......
    .......@.......
    .......@.......
    .......@.......
    .......@.......
    .......@.......
    .......@.......
    @@@@@@@@@@@@@@@
    .......@.......
    .......@.......
    .......@.......
    .......@.......
    .......@.......
    .......@.......
    .......@.......
    .......@.......
    .......@.......
    .......@.......
    .......@.......
    .......@.......

u+00e3:
0xc6:
    ...............
    ...............
    ...............
    ...............
    ....@@@@@.@@...
    ...@@.@@@@@....
    ...............
    ...............
    ....@@@@@@.....
    ..@@@@@@@@@....
    ...@.....@@@...
    ..........@@...
    ....@@@@@.@@...
    ..@@@@@@@@@@...
    ..@@.....@@@...
    .@@.......@@...
    .@@.......@@...
    ..@@....@@@@...
    ..@@@@@@@@@@@@.
    ....@@@@..@@@@.
    ...............
    ...............
    ...............
    ...............
    ...............

u+00c3:
0xc7:
    ...............
    ...@@@@@.@@....
    ..@@.@@@@@.....
    ...............
    ...............
    ...@@@@@@......
    ...@@@@@@......
    .....@@@@@.....
    .....@@.@@.....
    ....@@..@@.....
    ....@@...@@....
    ....@@...@@....
    ...@@.....@@...
    ...@@@@@@@@@...
    ...@@@@@@@@@...
    ...@@.....@@...
    ..@@.......@@..
    ..@@.......@@..
    @@@@@@...@@@@@@
    @@@@@@...@@@@@@
    ...............
    ...............
    ...............
    ...............
    ...............

u+255a:
0xc8:
    .....@...@.....
    .....@...@.....
    .....@...@.....
    .....@...@.....
    .....@...@.....
    .....@...@.....
    .....@...@.....
    .....@...@.....
    .....@...@.....
    .....@...@.....
    .....@...@@@@@@
    .....@.........
    .....@.........
    .....@.........
    .....@@@@@@@@@@
    ...............
    ...............
    ...............
    ...............
    ...............
    ...............
    ...............
    ...............
    ...............
    ...............

u+2554:
0xc9:
    ...............
    ...............
    ...............
    ...............
    ...............
    ...............
    ...............
    ...............
    ...............
    ...............
    .....@@@@@@@@@@
    .....@.........
    .....@.........
    .....@.........
    .....@...@@@@@@
    .....@...@.....
    .....@...@.....
    .....@...@.....
    .....@...@.....
    .....@...@.....
    .....@...@.....
    .....@...@.....
    .....@...@.....
    .....@...@.....
    .....@...@.....

u+2569:
0xca:
    .....@...@.....
    .....@...@.....
    .....@...@.....
    .....@...@.....
    .....@...@.....
    .....@...@.....
    .....@...@.....
    .....@...@.....
    .....@...@.....
    .....@...@.....
    @@@@@@...@@@@@@
    ...............
    ...............
    ...............
    @@@@@@@@@@@@@@@
    ...............
    ...............
    ...............
    ...............
    ...............
    ...............
    ...............
    ...............
    ...............
    ...............

u+2566:
0xcb:
    ...............
    ...............
    ...............
    ...............
    ...............
    ...............
    ...............
    ...............
    ...............
    ...............
    @@@@@@@@@@@@@@@
    ...............
    ...............
    ...............
    @@@@@@...@@@@@@
    .....@...@.....
    .....@...@.....
    .....@...@.....
    .....@...@.....
    .....@...@.....
    .....@...@.....
    .....@...@.....
    .....@...@.....
    .....@...@.....
    .....@...@.....

u+2560:
0xcc:
    .....@...@.....
    .....@...@.....
    .....@...@.....
    .....@...@.....
    .....@...@.....
    .....@...@.....
    .....@...@.....
    .....@...@.....
    .....@...@.....
    .....@...@.....
    .....@...@@@@@@
    .....@.........
    .....@.........
    .....@.........
    .....@...@@@@@@
    .....@...@.....
    .....@...@.....
    .....@...@.....
    .....@...@.....
    .....@...@.....
    .....@...@.....
    .....@...@.....
    .....@...@.....
    .....@...@.....
    .....@...@.....

u+2550:
0xcd:
    ...............
    ...............
    ...............
    ...............
    ...............
    ...............
    ...............
    ...............
    ...............
    ...............
    @@@@@@@@@@@@@@@
    ...............
    ...............
    ...............
    @@@@@@@@@@@@@@@
    ...............
    ...............
    ...............
    ...............
    ...............
    ...............
    ...............
    ...............
    ...............
    ...............

u+256c:
0xce:
    .....@...@.....
    .....@...@.....
    .....@...@.....
    .....@...@.....
    .....@...@.....
    .....@...@.....
    .....@...@.....
    .....@...@.....
    .....@...@.....
    .....@...@.....
    @@@@@@...@@@@@@
    ...............
    ...............
    ...............
    @@@@@@...@@@@@@
    .....@...@.....
    .....@...@.....
    .....@...@.....
    .....@...@.....
    .....@...@.....
    .....@...@.....
    .....@...@.....
    .....@...@.....
    .....@...@.....
    .....@...@.....

u+00a4:
0xcf:
    ...............
    ...............
    ...............
    ...............
    ...............
    ..@.........@..
    ...@.@@@@@.@...
    ....@@@.@@@....
    ...@@.....@@...
    ...@@.....@@...
    ...@.......@...
    ...@@.....@@...
    ...@@.....@@...
    ....@@@.@@@....
    ...@.@@@@@.@...
    ..@.........@..
    ...............
    ...............
    ...............
    ...............
    ...............
    ...............
    ...............
    ...............
    ...............

u+00f0:
0xd0:
    ...............
    ...............
    ...............
    ...............
    ....@@..@@.....
    .....@@@@@.....
    ....@@@@.......
    ...@@..@@......
    ........@@.....
    .....@@@@@@....
    ...@@@@@@@@@...
    ..@@@....@@@...
    ..@@......@@@..
    .@@........@@..
    .@@........@@..
    .@@........@@..
    ..@@......@@...
    ..@@@....@@@...
    ...@@@@@@@@....
    .....@@@@......
    ...............
    ...............
    ...............
    ...............
    ...............

u+00d0:
0xd1:
    ...............
    ...............
    ...............
    ...............
    ...............
    @@@@@@@@@......
    @@@@@@@@@@@....
    ..@@....@@@@...
    ..@@......@@...
    ..@@......@@@..
    ..@@.......@@..
    @@@@@@@@...@@..
    @@@@@@@@...@@..
    ..@@.......@@..
    ..@@.......@@..
    ..@@......@@@..
    ..@@......@@...
    ..@@....@@@@...
    @@@@@@@@@@@....
    @@@@@@@@@......
    ...............
    ...............
    ...............
    ...............
    ...............

u+00ca:
0xd2:
    ...............
    ......@@.......
    ....@@@@@@.....
    ...@@....@@....
    ...............
    .@@@@@@@@@@@@..
    .@@@@@@@@@@@@..
    ...@@......@@..
    ...@@......@@..
    ...@@...@@.@@..
    ...@@...@@.....
    ...@@@@@@@.....
    ...@@@@@@@.....
    ...@@...@@.....
    ...@@...@@.....
    ...@@......@@..
    ...@@......@@..
    ...@@......@@..
    .@@@@@@@@@@@@..
    .@@@@@@@@@@@@..
    ...............
    ...............
    ...............
    ...............
    ...............

u+00cb:
0xd3:
    ...............
    ...@@@...@@@...
    ...@@@...@@@...
    ...@@@...@@@...
    ...............
    .@@@@@@@@@@@@..
    .@@@@@@@@@@@@..
    ...@@......@@..
    ...@@......@@..
    ...@@...@@.@@..
    ...@@...@@.....
    ...@@@@@@@.....
    ...@@@@@@@.....
    ...@@...@@.....
    ...@@...@@.....
    ...@@......@@..
    ...@@......@@..
    ...@@......@@..
    .@@@@@@@@@@@@..
    .@@@@@@@@@@@@..
    ...............
    ...............
    ...............
    ...............
    ...............

u+00c8:
0xd4:
    ...............
    ...@@@@........
    .....@@@.......
    .......@@......
    ...............
    .@@@@@@@@@@@@..
    .@@@@@@@@@@@@..
    ...@@......@@..
    ...@@......@@..
    ...@@...@@.@@..
    ...@@...@@.....
    ...@@@@@@@.....
    ...@@@@@@@.....
    ...@@...@@.....
    ...@@...@@.....
    ...@@......@@..
    ...@@......@@..
    ...@@......@@..
    .@@@@@@@@@@@@..
    .@@@@@@@@@@@@..
    ...............
    ...............
    ...............
    ...............
    ...............

u+20ac:
0xd5:
    ...............
    ...............
    ...............
    ...............
    ...............
    ...............
    ...............
    ...............
    ..@@@@@@.......
    ..@@@@@@.......
    ......@@.......
    ......@@.......
    ......@@.......
    ......@@.......
    ......@@.......
    ......@@.......
    ......@@.......
    ......@@.......
    .@@@@@@@@@@@@..
    .@@@@@@@@@@@@..
    ...............
    ...............
    ...............
    ...............
    ...............

u+00cd:
0xd6:
    ...............
    ........@@@@...
    .......@@@.....
    ......@@.......
    ...............
    ..@@@@@@@@@@...
    ..@@@@@@@@@@...
    ......@@.......
    ......@@.......
    ......@@.......
    ......@@.......
    ......@@.......
    ......@@.......
    ......@@.......
    ......@@.......
    ......@@.......
    ......@@.......
    ......@@.......
    ..@@@@@@@@@@...
    ..@@@@@@@@@@...
    ...............
    ...............
    ...............
    ...............
    ...............

u+00ce:
0xd7:
    ...............
    ......@@.......
    ....@@@@@@.....
    ...@@....@@....
    ...............
    ..@@@@@@@@@@...
    ..@@@@@@@@@@...
    ......@@.......
    ......@@.......
    ......@@.......
    ......@@.......
    ......@@.......
    ......@@.......
    ......@@.......
    ......@@.......
    ......@@.......
    ......@@.......
    ......@@.......
    ..@@@@@@@@@@...
    ..@@@@@@@@@@...
    ...............
    ...............
    ...............
    ...............
    ...............

u+00cf:
0xd8:
    ...............
    ...@@@...@@@...
    ...@@@...@@@...
    ...@@@...@@@...
    ...............
    ..@@@@@@@@@@...
    ..@@@@@@@@@@...
    ......@@.......
    ......@@.......
    ......@@.......
    ......@@.......
    ......@@.......
    ......@@.......
    ......@@.......
    ......@@.......
    ......@@.......
    ......@@.......
    ......@@.......
    ..@@@@@@@@@@...
    ..@@@@@@@@@@...
    ...............
    ...............
    ...............
    ...............
    ...............

u+2518:
0xd9:
    .......@.......
    .......@.......
    .......@.......
    .......@.......
    .......@.......
    .......@.......
    .......@.......
    .......@.......
    .......@.......
    .......@.......
    .......@.......
    .......@.......
    @@@@@@@@.......
    ...............
    ...............
    ...............
    ...............
    ...............
    ...............
    ...............
    ...............
    ...............
    ...............
    ...............
    ...............

u+250c:
0xda:
    ...............
    ...............
    ...............
    ...............
    ...............
    ...............
    ...............
    ...............
    ...............
    ...............
    ...............
    ...............
    .......@@@@@@@@
    .......@.......
    .......@.......
    .......@.......
    .......@.......
    .......@.......
    .......@.......
    .......@.......
    .......@.......
    .......@.......
    .......@.......
    .......@.......
    .......@.......

u+2588:
0xdb:
    @@@@@@@@@@@@@@@
    @@@@@@@@@@@@@@@
    @@@@@@@@@@@@@@@
    @@@@@@@@@@@@@@@
    @@@@@@@@@@@@@@@
    @@@@@@@@@@@@@@@
    @@@@@@@@@@@@@@@
    @@@@@@@@@@@@@@@
    @@@@@@@@@@@@@@@
    @@@@@@@@@@@@@@@
    @@@@@@@@@@@@@@@
    @@@@@@@@@@@@@@@
    @@@@@@@@@@@@@@@
    @@@@@@@@@@@@@@@
    @@@@@@@@@@@@@@@
    @@@@@@@@@@@@@@@
    @@@@@@@@@@@@@@@
    @@@@@@@@@@@@@@@
    @@@@@@@@@@@@@@@
    @@@@@@@@@@@@@@@
    @@@@@@@@@@@@@@@
    @@@@@@@@@@@@@@@
    @@@@@@@@@@@@@@@
    @@@@@@@@@@@@@@@
    @@@@@@@@@@@@@@@

u+2584:
0xdc:
    ...............
    ...............
    ...............
    ...............
    ...............
    ...............
    ...............
    ...............
    ...............
    ...............
    ...............
    ...............
    @@@@@@@@@@@@@@@
    @@@@@@@@@@@@@@@
    @@@@@@@@@@@@@@@
    @@@@@@@@@@@@@@@
    @@@@@@@@@@@@@@@
    @@@@@@@@@@@@@@@
    @@@@@@@@@@@@@@@
    @@@@@@@@@@@@@@@
    @@@@@@@@@@@@@@@
    @@@@@@@@@@@@@@@
    @@@@@@@@@@@@@@@
    @@@@@@@@@@@@@@@
    @@@@@@@@@@@@@@@

u+00a6:
0xdd:
    ...............
    ...............
    ......@@.......
    ......@@.......
    ......@@.......
    ......@@.......
    ......@@.......
    ......@@.......
    ......@@.......
    ......@@.......
    ......@@.......
    ...............
    ...............
    ...............
    ...............
    ......@@.......
    ......@@.......
    ......@@.......
    ......@@.......
    ......@@.......
    ......@@.......
    ......@@.......
    ......@@.......
    ......@@.......
    ...............

u+00cc:
0xde:
    ...............
    ..@@@@.........
    ....@@@........
    ......@@.......
    ...............
    ..@@@@@@@@@@...
    ..@@@@@@@@@@...
    ......@@.......
    ......@@.......
    ......@@.......
    ......@@.......
    ......@@.......
    ......@@.......
    ......@@.......
    ......@@.......
    ......@@.......
    ......@@.......
    ......@@.......
    ..@@@@@@@@@@...
    ..@@@@@@@@@@...
    ...............
    ...............
    ...............
    ...............
    ...............

u+2580:
0xdf:
    @@@@@@@@@@@@@@@
    @@@@@@@@@@@@@@@
    @@@@@@@@@@@@@@@
    @@@@@@@@@@@@@@@
    @@@@@@@@@@@@@@@
    @@@@@@@@@@@@@@@
    @@@@@@@@@@@@@@@
    @@@@@@@@@@@@@@@
    @@@@@@@@@@@@@@@
    @@@@@@@@@@@@@@@
    @@@@@@@@@@@@@@@
    @@@@@@@@@@@@@@@
    ...............
    ...............
    ...............
    ...............
    ...............
    ...............
    ...............
    ...............
    ...............
    ...............
    ...............
    ...............
    ...............

u+00d3:
0xe0:
    ...............
    ........@@@@...
    .......@@@.....
    ......@@.......
    ...............
    ....@@@@@@.....
    ..@@@@@@@@@@...
    .@@@@....@@@@..
    .@@........@@..
    @@@........@@@.
    @@..........@@.
    @@..........@@.
    @@..........@@.
    @@..........@@.
    @@..........@@.
    @@@........@@@.
    .@@........@@..
    .@@@@....@@@@..
    ..@@@@@@@@@@...
    ....@@@@@@.....
    ...............
    ...............
    ...............
    ...............
    ...............

u+00df:
0xe1:
    ...............
    ...............
    ...............
    ...............
    ......@@@@.....
    ....@@@@@@@@...
    ....@@....@@...
    ...@@......@@..
    ...@@......@@..
    ...@@.....@@...
    ...@@..@@@@....
    ...@@..@@@@@@..
    ...@@......@@..
    ...@@.......@@.
    ...@@.......@@.
    ...@@.......@@.
    ...@@.......@@.
    ...@@......@@..
    .@@@@..@@@@@@..
    .@@@@..@@@@....
    ...............
    ...............
    ...............
    ...............
    ...............

u+00d4:
0xe2:
    ...............
    ......@@.......
    ....@@@@@@.....
    ...@@....@@....
    ...............
    ....@@@@@@.....
    ..@@@@@@@@@@...
    .@@@@....@@@@..
    .@@........@@..
    @@@........@@@.
    @@..........@@.
    @@..........@@.
    @@..........@@.
    @@..........@@.
    @@..........@@.
    @@@........@@@.
    .@@........@@..
    .@@@@....@@@@..
    ..@@@@@@@@@@...
    ....@@@@@@.....
    ...............
    ...............
    ...............
    ...............
    ...............

u+00d2:
0xe3:
    ...............
    ...@@@@........
    .....@@@.......
    .......@@......
    ...............
    ....@@@@@@.....
    ..@@@@@@@@@@...
    .@@@@....@@@@..
    .@@........@@..
    @@@........@@@.
    @@..........@@.
    @@..........@@.
    @@..........@@.
    @@..........@@.
    @@..........@@.
    @@@........@@@.
    .@@........@@..
    .@@@@....@@@@..
    ..@@@@@@@@@@...
    ....@@@@@@.....
    ...............
    ...............
    ...............
    ...............
    ...............

u+00f5:
0xe4:
    ...............
    ...............
    ...............
    ...............
    ....@@@@@.@@...
    ...@@.@@@@@....
    ...............
    ...............
    .....@@@@......
    ...@@@@@@@@....
    ..@@@....@@@...
    ..@@......@@...
    .@@........@@..
    .@@........@@..
    .@@........@@..
    .@@........@@..
    ..@@......@@...
    ..@@@....@@@...
    ...@@@@@@@@....
    .....@@@@......
    ...............
    ...............
    ...............
    ...............
    ...............

u+00d5:
0xe5:
    ...............
    ....@@@@@.@@...
    ...@@.@@@@@....
    ...............
    ...............
    ....@@@@@@.....
    ..@@@@@@@@@@...
    .@@@@....@@@@..
    .@@........@@..
    @@@........@@@.
    @@..........@@.
    @@..........@@.
    @@..........@@.
    @@..........@@.
    @@..........@@.
    @@@........@@@.
    .@@........@@..
    .@@@@....@@@@..
    ..@@@@@@@@@@...
    ....@@@@@@.....
    ...............
    ...............
    ...............
    ...............
    ...............

u+00b5:
0xe6:
    ...............
    ...............
    ...............
    ...............
    ...............
    ...............
    ...............
    ...............
    .@@@@......@@..
    .@@@@......@@..
    ...@@......@@..
    ...@@......@@..
    ..@@......@@...
    ..@@......@@...
    ..@@......@@...
    ..@@......@@...
    .@@......@@....
    .@@@....@@@....
    .@@@@@@@@@@@@..
    .@@.@@@@..@@@..
    .@@............
    @@.............
    @@.............
    @@.............
    @@.............

u+00fe:
0xe7:
    ...............
    ...............
    ...............
    ...............
    @@@@...........
    @@@@...........
    ..@@...........
    ..@@...........
    ..@@.@@@@......
    ..@@@@@@@@@....
    ..@@@....@@@...
    ..@@......@@...
    ..@@.......@@..
    ..@@.......@@..
    ..@@.......@@..
    ..@@.......@@..
    ..@@......@@...
    ..@@@....@@@...
    ..@@@@@@@@@....
    ..@@.@@@@......
    ..@@...........
    ..@@...........
    ..@@...........
    @@@@@@@@.......
    @@@@@@@@.......

u+00de:
0xe8:
    ...............
    ...............
    ...............
    ...............
    ...............
    .@@@@@@@@......
    .@@@@@@@@......
    ...@@..........
    ...@@@@@@@.....
    ...@@@@@@@@@...
    ...@@.....@@...
    ...@@......@@..
    ...@@......@@..
    ...@@......@@..
    ...@@.....@@...
    ...@@@@@@@@@...
    ...@@@@@@@.....
    ...@@..........
    .@@@@@@@@......
    .@@@@@@@@......
    ...............
    ...............
    ...............
    ...............
    ...............

u+00da:
0xe9:
    ...............
    ........@@@@...
    .......@@@.....
    ......@@.......
    ...............
    @@@@@@...@@@@@@
    @@@@@@...@@@@@@
    ..@@.......@@..
    ..@@.......@@..
    ..@@.......@@..
    ..@@.......@@..
    ..@@.......@@..
    ..@@.......@@..
    ..@@.......@@..
    ..@@.......@@..
    ..@@.......@@..
    ..@@.......@@..
    ...@@.....@@...
    ...@@@@@@@@@...
    .....@@@@@.....
    ...............
    ...............
    ...............
    ...............
    ...............

u+00db:
0xea:
    ...............
    .......@@......
    .....@@@@@@....
    ....@@....@@...
    ...............
    @@@@@@...@@@@@@
    @@@@@@...@@@@@@
    ..@@.......@@..
    ..@@.......@@..
    ..@@.......@@..
    ..@@.......@@..
    ..@@.......@@..
    ..@@.......@@..
    ..@@.......@@..
    ..@@.......@@..
    ..@@.......@@..
    ..@@.......@@..
    ...@@.....@@...
    ...@@@@@@@@@...
    .....@@@@@.....
    ...............
    ...............
    ...............
    ...............
    ...............

u+00d9:
0xeb:
    ...............
    ...@@@@........
    .....@@@.......
    .......@@......
    ...............
    @@@@@@...@@@@@@
    @@@@@@...@@@@@@
    ..@@.......@@..
    ..@@.......@@..
    ..@@.......@@..
    ..@@.......@@..
    ..@@.......@@..
    ..@@.......@@..
    ..@@.......@@..
    ..@@.......@@..
    ..@@.......@@..
    ..@@.......@@..
    ...@@.....@@...
    ...@@@@@@@@@...
    .....@@@@@.....
    ...............
    ...............
    ...............
    ...............
    ...............

u+00fd:
0xec:
    ...............
    ...............
    ...............
    ..........@@...
    .........@@@...
    .......@@@.....
    ......@@.......
    ...............
    @@@@@@..@@@@@@.
    @@@@@@..@@@@@@.
    ..@@......@@...
    ..@@......@@...
    ...@@....@@....
    ...@@....@@....
    ....@@..@@.....
    ....@@..@@.....
    .....@@.@......
    .....@@@@......
    ......@@.......
    ......@@.......
    .....@@........
    .....@@........
    ....@@.........
    @@@@@@@@.......
    @@@@@@@@.......

u+00dd:
0xed:
    ...............
    ........@@@@...
    .......@@@.....
    ......@@.......
    ...............
    @@@@@@..@@@@@@.
    @@@@@@..@@@@@@.
    ..@@......@@...
    ...@@....@@....
    ...@@....@@....
    ....@@..@@.....
    ....@@..@@.....
    .....@@@@......
    .....@@@@......
    ......@@.......
    ......@@.......
    ......@@.......
    ......@@.......
    ...@@@@@@@@....
    ...@@@@@@@@....
    ...............
    ...............
    ...............
    ...............
    ...............

u+00af:
0xee:
    @@@@@@@@@@@@@@@
    @@@@@@@@@@@@@@@
    ...............
    ...............
    ...............
    ...............
    ...............
    ...............
    ...............
    ...............
    ...............
    ...............
    ...............
    ...............
    ...............
    ...............
    ...............
    ...............
    ...............
    ...............
    ...............
    ...............
    ...............
    ...............
    ...............

u+00b4:
0xef:
    .........@@....
    ........@@@....
    ......@@@......
    .....@@........
    ...............
    ...............
    ...............
    ...............
    ...............
    ...............
    ...............
    ...............
    ...............
    ...............
    ...............
    ...............
    ...............
    ...............
    ...............
    ...............
    ...............
    ...............
    ...............
    ...............
    ...............

u+00ad:
0xf0:
    ...............
    ...............
    ...............
    ...............
    ...............
    ...............
    ...............
    ...............
    ...............
    ...............
    ...............
    ...............
    ...............
    ..@@@@@@@@@@@..
    ..@@@@@@@@@@@..
    ...............
    ...............
    ...............
    ...............
    ...............
    ...............
    ...............
    ...............
    ...............
    ...............

u+00b1:
0xf1:
    ...............
    ...............
    ...............
    ...............
    ...............
    ...............
    ......@@.......
    ......@@.......
    ......@@.......
    ......@@.......
    .@@@@@@@@@@@@..
    .@@@@@@@@@@@@..
    ......@@.......
    ......@@.......
    ......@@.......
    ......@@.......
    ...............
    ...............
    .@@@@@@@@@@@@..
    .@@@@@@@@@@@@..
    ...............
    ...............
    ...............
    ...............
    ...............

u+2017:
0xf2:
    ...............
    ...............
    ...............
    ...............
    ...............
    ...............
    ...............
    ...............
    ...............
    ...............
    ...............
    ...............
    ...............
    ...............
    ...............
    ...............
    ...............
    ...............
    ...............
    ...............
    @@@@@@@@@@@@@@@
    @@@@@@@@@@@@@@@
    ...............
    @@@@@@@@@@@@@@@
    @@@@@@@@@@@@@@@

u+00be:
0xf3:
    ...............
    ..@@@@.........
    .@@..@@........
    .....@@........
    .....@@........
    ...@@@.........
    .....@@........
    .....@@........
    .@@..@@........
    ..@@@@....@@@..
    ........@@@....
    .....@@@@......
    ...@@@.........
    .@@@....@@@....
    .......@@@@....
    .......@.@@....
    ......@@.@@....
    ......@..@@....
    .....@@..@@....
    .....@@@@@@@...
    .........@@....
    .........@@....
    ...............
    ...............
    ...............

u+00b6:
0xf4:
    ...............
    ...............
    ...............
    ...............
    ...............
    ...@@@@@@@@@@..
    ..@@@@@..@@@@..
    .@@@@@@..@@....
    .@@@@@@..@@....
    .@@@@@@..@@....
    .@@@@@@..@@....
    .@@@@@@..@@....
    ..@@@@@..@@....
    ...@@@@..@@....
    .....@@..@@....
    .....@@..@@....
    .....@@..@@....
    .....@@..@@....
    .....@@..@@....
    .....@@..@@....
    ...@@@@..@@@@..
    ...@@@@..@@@@..
    ...............
    ...............
    ...............

u+00a7:
0xf5:
    ...............
    ...............
    ...............
    ...............
    ...............
    .....@@@@@@@...
    ....@@@@@@@@...
    ....@@....@@...
    ...@@@....@@...
    ..@@@@@........
    ..@@.@@@.......
    ..@@..@@@@.....
    ..@@@..@@@@....
    ...@@@...@@@...
    ....@@@@..@@@..
    .....@@@@..@@..
    .......@@@.@@..
    ........@@@@@..
    ...@@....@@@...
    ...@@....@@....
    ...@@@@@@@@....
    ...@@@@@@@.....
    ...............
    ...............
    ...............

u+00f7:
0xf6:
    ...............
    ...............
    ...............
    ...............
    ...............
    ...............
    ...............
    ...............
    ......@@@......
    ......@@@......
    ......@@@......
    ...............
    ...............
    .@@@@@@@@@@@@@.
    .@@@@@@@@@@@@@.
    ...............
    ...............
    ......@@@......
    ......@@@......
    ......@@@......
    ...............
    ...............
    ...............
    ...............
    ...............

u+00b8:
0xf7:
    ...............
    ...............
    ...............
    ...............
    ...............
    ...............
    ...............
    ...............
    ...............
    ...............
    ...............
    ...............
    ...............
    ...............
    ...............
    ...............
    ...............
    ...............
    ...............
    ...............
    .......@.......
    .......@@@.....
    .........@@....
    .....@@..@@....
    ......@@@@.....

u+00b0:
0xf8:
    ...............
    ...............
    ...............
    ...............
    ...............
    .....@@@@......
    ....@@@@@@.....
    ...@@....@@....
    ...@@....@@....
    ...@@....@@....
    ...@@....@@....
    ....@@@@@@.....
    .....@@@@......
    ...............
    ...............
    ...............
    ...............
    ...............
    ...............
    ...............
    ...............
    ...............
    ...............
    ...............
    ...............

u+00a8:
0xf9:
    ...@@@...@@@...
    ...@@@...@@@...
    ...@@@...@@@...
    ...............
    ...............
    ...............
    ...............
    ...............
    ...............
    ...............
    ...............
    ...............
    ...............
    ...............
    ...............
    ...............
    ...............
    ...............
    ...............
    ...............
    ...............
    ...............
    ...............
    ...............
    ...............

u+00b7:
0xfa:
    ...............
    ...............
    ...............
    ...............
    ...............
    ...............
    ...............
    ...............
    ...............
    ...............
    ......@@@......
    .....@@@@@.....
    .....@@@@@.....
    ......@@@......
    ...............
    ...............
    ...............
    ...............
    ...............
    ...............
    ...............
    ...............
    ...............
    ...............
    ...............

u+00b9:
0xfb:
    ...............
    ...............
    ...............
    ...............
    ...............
    ......@@@......
    ....@@@@@......
    .......@@......
    .......@@......
    .......@@......
    .......@@......
    .......@@......
    .......@@......
    .......@@......
    ....@@@@@@@@...
    ...............
    ...............
    ...............
    ...............
    ...............
    ...............
    ...............
    ...............
    ...............
    ...............

u+00b3:
0xfc:
    ...............
    ...............
    ...............
    ...............
    ...............
    .....@@@@@.....
    ....@@..@@@....
    .........@@....
    .........@@....
    ......@@@@.....
    .........@@....
    ..........@@...
    ..........@@...
    ....@@...@@@...
    .....@@@@@@....
    ...............
    ...............
    ...............
    ...............
    ...............
    ...............
    ...............
    ...............
    ...............
    ...............

u+00b2:
0xfd:
    ...............
    ...............
    ...............
    ...............
    ...............
    ......@@@......
    ....@@@.@@.....
    ....@@...@@....
    .........@@....
    .........@@....
    ........@@.....
    ......@@@......
    .....@@........
    ....@@....@....
    ....@@@@@@@....
    ...............
    ...............
    ...............
    ...............
    ...............
    ...............
    ...............
    ...............
    ...............
    ...............

u+25a0:
0xfe:
    ...............
    ...............
    ...............
    .@@@@@@@@@@@@@.
    .@@@@@@@@@@@@@.
    .@@@@@@@@@@@@@.
    .@@@@@@@@@@@@@.
    .@@@@@@@@@@@@@.
    .@@@@@@@@@@@@@.
    .@@@@@@@@@@@@@.
    .@@@@@@@@@@@@@.
    .@@@@@@@@@@@@@.
    .@@@@@@@@@@@@@.
    .@@@@@@@@@@@@@.
    .@@@@@@@@@@@@@.
    .@@@@@@@@@@@@@.
    .@@@@@@@@@@@@@.
    .@@@@@@@@@@@@@.
    .@@@@@@@@@@@@@.
    .@@@@@@@@@@@@@.
    ...............
    ...............
    ...............
    ...............
    ...............

u+00a0:
0xff:
    ...............
    ...............
    ...............
    ...............
    ...............
    ...............
    ...............
    ...............
    ...............
    ...............
    ...............
    ...............
    ...............
    ...............
    ...............
    ...............
    ...............
    ...............
    ...............
    ...............
    ...............
    ...............
    ...............
    ...............
    ...............

u+20a7:
0x0100:
    ...............
    ...............
    ...............
    ...............
    ...............
    @@@@...@@......
    @@@@@@.@@......
    .@@.@@.@@......
    .@@.@@.@@......
    .@@.@@@@@@.@@@.
    .@@.@@@@@@@@@@@
    .@@.@@.@@.@@..@
    .@@@@@.@@.@@...
    .@@@...@@.@@@@.
    .@@....@@..@@@.
    .@@....@@....@@
    .@@....@@....@@
    .@@....@@.@..@@
    @@@@...@@@@@@@@
    @@@@....@@.@@@.
    ...............
    ...............
    ...............
    ...............
    ...............

u+2310:
0x0101:
    ...............
    ...............
    ...............
    ...............
    ...............
    ...............
    ...............
    ...............
    ...............
    ...............
    ...............
    .@@@@@@@@@@@@..
    .@@@@@@@@@@@@..
    .@@............
    .@@............
    .@@............
    .@@............
    ...............
    ...............
    ...............
    ...............
    ...............
    ...............
    ...............
    ...............

u+2561:
0x0102:
    .......@.......
    .......@.......
    .......@.......
    .......@.......
    .......@.......
    .......@.......
    .......@.......
    .......@.......
    .......@.......
    .......@.......
    @@@@@@@@.......
    .......@.......
    .......@.......
    .......@.......
    @@@@@@@@.......
    .......@.......
    .......@.......
    .......@.......
    .......@.......
    .......@.......
    .......@.......
    .......@.......
    .......@.......
    .......@.......
    .......@.......

u+2562:
0x0103:
    .....@...@.....
    .....@...@.....
    .....@...@.....
    .....@...@.....
    .....@...@.....
    .....@...@.....
    .....@...@.....
    .....@...@.....
    .....@...@.....
    .....@...@.....
    .....@...@.....
    .....@...@.....
    @@@@@@...@.....
    .....@...@.....
    .....@...@.....
    .....@...@.....
    .....@...@.....
    .....@...@.....
    .....@...@.....
    .....@...@.....
    .....@...@.....
    .....@...@.....
    .....@...@.....
    .....@...@.....
    .....@...@.....

u+2556:
0x0104:
    ...............
    ...............
    ...............
    ...............
    ...............
    ...............
    ...............
    ...............
    ...............
    ...............
    ...............
    ...............
    @@@@@@@@@@.....
    .....@...@.....
    .....@...@.....
    .....@...@.....
    .....@...@.....
    .....@...@.....
    .....@...@.....
    .....@...@.....
    .....@...@.....
    .....@...@.....
    .....@...@.....
    .....@...@.....
    .....@...@.....

u+2555:
0x0105:
    ...............
    ...............
    ...............
    ...............
    ...............
    ...............
    ...............
    ...............
    ...............
    ...............
    @@@@@@@@.......
    .......@.......
    .......@.......
    .......@.......
    @@@@@@@@.......
    .......@.......
    .......@.......
    .......@.......
    .......@.......
    .......@.......
    .......@.......
    .......@.......
    .......@.......
    .......@.......
    .......@.......

u+255c:
0x0106:
    .....@...@.....
    .....@...@.....
    .....@...@.....
    .....@...@.....
    .....@...@.....
    .....@...@.....
    .....@...@.....
    .....@...@.....
    .....@...@.....
    .....@...@.....
    .....@...@.....
    .....@...@.....
    @@@@@@@@@@.....
    ...............
    ...............
    ...............
    ...............
    ...............
    ...............
    ...............
    ...............
    ...............
    ...............
    ...............
    ...............

u+255b:
0x0107:
    .......@.......
    .......@.......
    .......@.......
    .......@.......
    .......@.......
    .......@.......
    .......@.......
    .......@.......
    .......@.......
    .......@.......
    @@@@@@@@.......
    .......@.......
    .......@.......
    .......@.......
    @@@@@@@@.......
    ...............
    ...............
    ...............
    ...............
    ...............
    ...............
    ...............
    ...............
    ...............
    ...............

u+255e:
0x0108:
    .......@.......
    .......@.......
    .......@.......
    .......@.......
    .......@.......
    .......@.......
    .......@.......
    .......@.......
    .......@.......
    .......@.......
    .......@@@@@@@@
    .......@.......
    .......@.......
    .......@.......
    .......@@@@@@@@
    .......@.......
    .......@.......
    .......@.......
    .......@.......
    .......@.......
    .......@.......
    .......@.......
    .......@.......
    .......@.......
    .......@.......

u+255f:
0x0109:
    .....@...@.....
    .....@...@.....
    .....@...@.....
    .....@...@.....
    .....@...@.....
    .....@...@.....
    .....@...@.....
    .....@...@.....
    .....@...@.....
    .....@...@.....
    .....@...@.....
    .....@...@.....
    .....@...@@@@@@
    .....@...@.....
    .....@...@.....
    .....@...@.....
    .....@...@.....
    .....@...@.....
    .....@...@.....
    .....@...@.....
    .....@...@.....
    .....@...@.....
    .....@...@.....
    .....@...@.....
    .....@...@.....

u+2567:
0x010a:
    .......@.......
    .......@.......
    .......@.......
    .......@.......
    .......@.......
    .......@.......
    .......@.......
    .......@.......
    .......@.......
    .......@.......
    @@@@@@@@@@@@@@@
    ...............
    ...............
    ...............
    @@@@@@@@@@@@@@@
    ...............
    ...............
    ...............
    ...............
    ...............
    ...............
    ...............
    ...............
    ...............
    ...............

u+2568:
0x010b:
    .....@...@.....
    .....@...@.....
    .....@...@.....
    .....@...@.....
    .....@...@.....
    .....@...@.....
    .....@...@.....
    .....@...@.....
    .....@...@.....
    .....@...@.....
    .....@...@.....
    .....@...@.....
    @@@@@@@@@@@@@@@
    ...............
    ...............
    ...............
    ...............
    ...............
    ...............
    ...............
    ...............
    ...............
    ...............
    ...............
    ...............

u+2564:
0x010c:
    ...............
    ...............
    ...............
    ...............
    ...............
    ...............
    ...............
    ...............
    ...............
    ...............
    @@@@@@@@@@@@@@@
    ...............
    ...............
    ...............
    @@@@@@@@@@@@@@@
    .......@.......
    .......@.......
    .......@.......
    .......@.......
    .......@.......
    .......@.......
    .......@.......
    .......@.......
    .......@.......
    .......@.......

u+2565:
0x010d:
    ...............
    ...............
    ...............
    ...............
    ...............
    ...............
    ...............
    ...............
    ...............
    ...............
    ...............
    ...............
    @@@@@@@@@@@@@@@
    .....@...@.....
    .....@...@.....
    .....@...@.....
    .....@...@.....
    .....@...@.....
    .....@...@.....
    .....@...@.....
    .....@...@.....
    .....@...@.....
    .....@...@.....
    .....@...@.....
    .....@...@.....

u+2559:
0x010e:
    .....@...@.....
    .....@...@.....
    .....@...@.....
    .....@...@.....
    .....@...@.....
    .....@...@.....
    .....@...@.....
    .....@...@.....
    .....@...@.....
    .....@...@.....
    .....@...@.....
    .....@...@.....
    .....@@@@@@@@@@
    ...............
    ...............
    ...............
    ...............
    ...............
    ...............
    ...............
    ...............
    ...............
    ...............
    ...............
    ...............

u+2558:
0x010f:
    .......@.......
    .......@.......
    .......@.......
    .......@.......
    .......@.......
    .......@.......
    .......@.......
    .......@.......
    .......@.......
    .......@.......
    .......@@@@@@@@
    .......@.......
    .......@.......
    .......@.......
    .......@@@@@@@@
    ...............
    ...............
    ...............
    ...............
    ...............
    ...............
    ...............
    ...............
    ...............
    ...............

u+2552:
0x0110:
    ...............
    ...............
    ...............
    ...............
    ...............
    ...............
    ...............
    ...............
    ...............
    ...............
    .......@@@@@@@@
    .......@.......
    .......@.......
    .......@.......
    .......@@@@@@@@
    .......@.......
    .......@.......
    .......@.......
    .......@.......
    .......@.......
    .......@.......
    .......@.......
    .......@.......
    .......@.......
    .......@.......

u+2553:
0x0111:
    ...............
    ...............
    ...............
    ...............
    ...............
    ...............
    ...............
    ...............
    ...............
    ...............
    ...............
    ...............
    .....@@@@@@@@@@
    .....@...@.....
    .....@...@.....
    .....@...@.....
    .....@...@.....
    .....@...@.....
    .....@...@.....
    .....@...@.....
    .....@...@.....
    .....@...@.....
    .....@...@.....
    .....@...@.....
    .....@...@.....

u+256b:
0x0112:
    .....@...@.....
    .....@...@.....
    .....@...@.....
    .....@...@.....
    .....@...@.....
    .....@...@.....
    .....@...@.....
    .....@...@.....
    .....@...@.....
    .....@...@.....
    .....@...@.....
    .....@...@.....
    @@@@@@@@@@@@@@@
    .....@...@.....
    .....@...@.....
    .....@...@.....
    .....@...@.....
    .....@...@.....
    .....@...@.....
    .....@...@.....
    .....@...@.....
    .....@...@.....
    .....@...@.....
    .....@...@.....
    .....@...@.....

u+256a:
0x0113:
    .......@.......
    .......@.......
    .......@.......
    .......@.......
    .......@.......
    .......@.......
    .......@.......
    .......@.......
    .......@.......
    .......@.......
    @@@@@@@@@@@@@@@
    .......@.......
    .......@.......
    .......@.......
    @@@@@@@@@@@@@@@
    .......@.......
    .......@.......
    .......@.......
    .......@.......
    .......@.......
    .......@.......
    .......@.......
    .......@.......
    .......@.......
    .......@.......

u+258c:
0x0114:
    @@@@@@@@.......
    @@@@@@@@.......
    @@@@@@@@.......
    @@@@@@@@.......
    @@@@@@@@.......
    @@@@@@@@.......
    @@@@@@@@.......
    @@@@@@@@.......
    @@@@@@@@.......
    @@@@@@@@.......
    @@@@@@@@.......
    @@@@@@@@.......
    @@@@@@@@.......
    @@@@@@@@.......
    @@@@@@@@.......
    @@@@@@@@.......
    @@@@@@@@.......
    @@@@@@@@.......
    @@@@@@@@.......
    @@@@@@@@.......
    @@@@@@@@.......
    @@@@@@@@.......
    @@@@@@@@.......
    @@@@@@@@.......
    @@@@@@@@.......

u+2590:
0x0115:
    ........@@@@@@@
    ........@@@@@@@
    ........@@@@@@@
    ........@@@@@@@
    ........@@@@@@@
    ........@@@@@@@
    ........@@@@@@@
    ........@@@@@@@
    ........@@@@@@@
    ........@@@@@@@
    ........@@@@@@@
    ........@@@@@@@
    ........@@@@@@@
    ........@@@@@@@
    ........@@@@@@@
    ........@@@@@@@
    ........@@@@@@@
    ........@@@@@@@
    ........@@@@@@@
    ........@@@@@@@
    ........@@@@@@@
    ........@@@@@@@
    ........@@@@@@@
    ........@@@@@@@
    ........@@@@@@@

u+03b1:
0x0116:
    ...............
    ...............
    ...............
    ...............
    ...............
    ...............
    ...............
    ...............
    ....@@@@....@@.
    ..@@@@@@@@.@@@.
    ..@@@...@@.@@..
    .@@......@@@@..
    .@@......@@@...
    .@@......@@@...
    @@.......@@....
    @@......@@@....
    @@.....@@@@....
    @@@..@@@.@@....
    .@@@@@@@.@@@@..
    ..@@@@....@@@..
    ...............
    ...............
    ...............
    ...............
    ...............

u+0393:
0x0117:
    ...............
    ...............
    ...............
    ...............
    ...............
    .@@@@@@@@@@@@..
    .@@@@@@@@@@@@..
    ...@@......@@..
    ...@@......@@..
    ...@@......@@..
    ...@@..........
    ...@@..........
    ...@@..........
    ...@@..........
    ...@@..........
    ...@@..........
    ...@@..........
    ...@@..........
    .@@@@@@@.......
    .@@@@@@@.......
    ...............
    ...............
    ...............
    ...............
    ...............

u+03c0:
0x0118:
    ...............
    ...............
    ...............
    ...............
    ...............
    ...............
    ...............
    ...............
    @@@@@@@@@@@@@@.
    @@@@@@@@@@@@@@.
    ..@@.....@@....
    ..@@.....@@....
    ..@@.....@@....
    .@@.....@@.....
    .@@.....@@.....
    .@@.....@@.....
    .@@.....@@.....
    @@.....@@......
    @@.....@@@@@...
    @@.....@@@@@...
    ...............
    ...............
    ...............
    ...............
    ...............

u+03a3:
0x0119:
    ...............
    ...............
    ...............
    ...............
    ...............
    .@@@@@@@@@@@@..
    .@@@@@@@@@@@@..
    ..@@.......@@..
    ...@@......@@..
    ....@@.....@@..
    .....@@........
    ......@@.......
    ......@@@......
    ......@@.......
    .....@@........
    ....@@.....@@..
    ...@@......@@..
    ..@@.......@@..
    .@@@@@@@@@@@@..
    .@@@@@@@@@@@@..
    ...............
    ...............
    ...............
    ...............
    ...............

u+03c3:
0x011a:
    ...............
    ...............
    ...............
    ...............
    ...............
    ...............
    ...............
    ...............
    ....@@@@@@@@@@.
    ..@@@@@@@@@@@@.
    .@@@.....@@....
    .@@.......@@...
    @@........@@...
    @@........@@...
    @@........@@...
    @@........@@...
    @@.......@@....
    .@@.....@@@....
    .@@@@@@@@@.....
    ...@@@@@.......
    ...............
    ...............
    ...............
    ...............
    ...............

u+03c4:
0x011b:
    ...............
    ...............
    ...............
    ...............
    ...............
    ...............
    ...............
    ...............
    ..@@@@@@@@@@@..
    ..@@@@@@@@@@@..
    ......@@.......
    ......@@.......
    ......@@.......
    .....@@........
    .....@@........
    .....@@........
    .....@@........
    .....@@@...@@..
    ......@@@@@@@..
    .......@@@@....
    ...............
    ...............
    ...............
    ...............
    ...............

u+03a6:
0x011c:
    ...............
    ...............
    ...............
    ...............
    ...............
    ....@@@@@@.....
    ....@@@@@@.....
    ......@@.......
    ....@@@@@@.....
    ..@@@@@@@@@@...
    ..@@..@@..@@...
    .@@...@@...@@..
    .@@...@@...@@..
    .@@...@@...@@..
    ..@@..@@..@@...
    ..@@@@@@@@@@...
    ....@@@@@@.....
    ......@@.......
    ....@@@@@@.....
    ....@@@@@@.....
    ...............
    ...............
    ...............
    ...............
    ...............

u+0398:
0x011d:
    ...............
    ...............
    ...............
    ...............
    ...............
    ....@@@@@@.....
    ..@@@@@@@@@@...
    .@@@@....@@@@..
    .@@........@@..
    @@@........@@@.
    @@..@....@..@@.
    @@..@@@@@@..@@.
    @@..@@@@@@..@@.
    @@..@....@..@@.
    @@..........@@.
    @@@........@@@.
    .@@........@@..
    .@@@@....@@@@..
    ..@@@@@@@@@@...
    ....@@@@@@.....
    ...............
    ...............
    ...............
    ...............
    ...............

u+03a9:
0x011e:
    ...............
    ...............
    ...............
    ...............
    ...............
    .....@@@@@.....
    ...@@@@@@@@@...
    ..@@@.....@@@..
    ..@@.......@@..
    .@@.........@@.
    .@@.........@@.
    .@@.........@@.
    .@@.........@@.
    ..@@.......@@..
    ..@@@.....@@@..
    ...@@@...@@@...
    ....@@...@@....
    .@@.@@...@@.@@.
    .@@@@@...@@@@@.
    .@@@@@...@@@@@.
    ...............
    ...............
    ...............
    ...............
    ...............

u+03b4:
0x011f:
    ...............
    ...............
    ...............
    ...............
    .......@@@@@@..
    .....@@@@@@@@..
    .....@@@.......
    .....@@........
    ......@@@......
    .......@@@.....
    .....@@@@@@....
    ...@@@@..@@@...
    ...@@.....@@@..
    ..@@.......@@..
    ..@@.......@@..
    ..@@.......@@..
    ..@@......@@...
    ...@@....@@@...
    ...@@@@@@@@....
    .....@@@@......
    ...............
    ...............
    ...............
    ...............
    ...............

u+221e:
0x0120:
    ...............
    ...............
    ...............
    ...............
    ...............
    ...............
    ...............
    ..@@@....@@....
    .@@@@@..@@@@@..
    .@@..@@@@..@@..
    @@....@@....@@.
    @@....@@....@@.
    @@....@@....@@.
    @@....@@....@@.
    .@@..@@@@..@@..
    .@@@@@..@@@@@..
    ..@@@....@@@...
    ...............
    ...............
    ...............
    ...............
    ...............
    ...............
    ...............
    ...............

u+03d5:
0x0121:
    ...............
    ...............
    ...............
    ...............
    ........@@.....
    ........@@.....
    ........@@.....
    ........@@.....
    ......@@@@@....
    ....@@@@@@@@@..
    ...@@@.@@..@@..
    ..@@...@@...@@.
    ..@@...@@...@@.
    .@@....@@...@@.
    .@@...@@....@@.
    .@@...@@...@@..
    .@@...@@...@@..
    ..@@..@@.@@@...
    ..@@@@@@@@@....
    ....@@@@@......
    .....@@........
    .....@@........
    .....@@........
    .....@@........
    .....@@........

u+03b5:
0x0122:
    ...............
    ...............
    ...............
    ...............
    ...............
    ...............
    ...............
    ...............
    .......@@@@@...
    .....@@@@@@@...
    ....@@@........
    ...@@..........
    ...@@..........
    ..@@@@@@@@@....
    ..@@@@@@@@@....
    ..@@...........
    ..@@...........
    ...@@..........
    ...@@@@@@@@....
    .....@@@@@@....
    ...............
    ...............
    ...............
    ...............
    ...............

u+2229:
0x0123:
    ...............
    ...............
    ...............
    ...............
    ...............
    .....@@@@@.....
    ...@@@@@@@@@...
    ..@@@.....@@@..
    ..@@.......@@..
    .@@.........@@.
    .@@.........@@.
    .@@.........@@.
    .@@.........@@.
    .@@.........@@.
    .@@.........@@.
    .@@.........@@.
    .@@.........@@.
    .@@.........@@.
    .@@.........@@.
    .@@.........@@.
    ...............
    ...............
    ...............
    ...............
    ...............

u+2261:
0x0124:
    ...............
    ...............
    ...............
    ...............
    ...............
    ...............
    ...............
    ...............
    ...............
    .@@@@@@@@@@@@..
    .@@@@@@@@@@@@..
    ...............
    ...............
    .@@@@@@@@@@@@..
    .@@@@@@@@@@@@..
    ...............
    ...............
    .@@@@@@@@@@@@..
    .@@@@@@@@@@@@..
    ...............
    ...............
    ...............
    ...............
    ...............
    ...............

u+2265:
0x0125:
    ...............
    ...............
    ...............
    ...............
    ...............
    ...............
    ...............
    ...............
    .@@@...........
    .@@@@@@@.......
    .....@@@@@@....
    .........@@@@..
    .........@@@@..
    .....@@@@@@....
    .@@@@@@@.......
    .@@@...........
    ...............
    ...............
    .@@@@@@@@@@@@..
    .@@@@@@@@@@@@..
    ...............
    ...............
    ...............
    ...............
    ...............

u+2264:
0x0126:
    ...............
    ...............
    ...............
    ...............
    ...............
    ...............
    ...............
    ...............
    ..........@@@..
    ......@@@@@@@..
    ...@@@@@@......
    .@@@@..........
    .@@@@..........
    ...@@@@@@......
    ......@@@@@@@..
    ..........@@@..
    ...............
    ...............
    .@@@@@@@@@@@@..
    .@@@@@@@@@@@@..
    ...............
    ...............
    ...............
    ...............
    ...............

u+2320:
0x0127:
    ..........@@@@@
    ........@@@@@@@
    ........@@@....
    .......@@@.....
    .......@@......
    .......@@......
    .......@@......
    .......@@......
    .......@@......
    .......@@......
    .......@@......
    .......@@......
    .......@@......
    .......@@......
    .......@@......
    .......@@......
    .......@@......
    .......@@......
    .......@@......
    .......@@......
    .......@@......
    .......@@......
    .......@@......
    .......@@......
    .......@@......

u+2321:
0x0128:
    .......@@......
    .......@@......
    .......@@......
    .......@@......
    .......@@......
    .......@@......
    .......@@......
    .......@@......
    .......@@......
    .......@@......
    .......@@......
    .......@@......
    .......@@......
    .......@@......
    .......@@......
    .......@@......
    .......@@......
    .......@@......
    .......@@......
    .......@@......
    .......@@......
    ......@@@......
    .....@@@.......
    .@@@@@@@.......
    .@@@@@.........

u+2248:
0x0129:
    ...............
    ...............
    ...............
    ...............
    ...............
    ...............
    ...............
    ...............
    ...............
    ...............
    ...............
    ...@@@@....@@..
    .@@@@@@@@@@@@..
    .@@....@@@@....
    ...............
    ...@@@@....@@..
    .@@@@@@@@@@@@..
    .@@....@@@@....
    ...............
    ...............
    ...............
    ...............
    ...............
    ...............
    ...............

u+2219:
0x012a:
    ...............
    ...............
    ...............
    ...............
    ...............
    .....@@@@......
    ....@@@@@@.....
    ...@@@@@@@@....
    ...@@@@@@@@....
    ...@@@@@@@@....
    ...@@@@@@@@....
    ....@@@@@@.....
    .....@@@@......
    ...............
    ...............
    ...............
    ...............
    ...............
    ...............
    ...............
    ...............
    ...............
    ...............
    ...............
    ...............

u+221a:
0x012b:
    ...........@@@@
    ...........@@@@
    ...........@@..
    ..........@@...
    ..........@@...
    ..........@@...
    .........@@....
    .........@@....
    .........@@....
    @@@.....@@.....
    @@@.....@@.....
    ..@@....@@.....
    ..@@....@@.....
    ..@@...@@......
    ...@@..@@......
    ...@@..@@......
    ...@@.@@.......
    ....@@@@.......
    ....@@@@.......
    ....@@@........
    .....@@........
    .....@@........
    ...............
    ...............
    ...............

u+207f:
0x012c:
    ...............
    ...............
    ...............
    ...............
    ...............
    ...............
    ...............
    ...............
    ..@@@.@@@......
    ..@@@@@@@@.....
    ...@@@..@@@....
    ...@@....@@....
    ...@@....@@....
    ...@@....@@....
    ...@@....@@....
    ..@@@@..@@@@...
    ..@@@@..@@@@...
    ...............
    ...............
    ...............
    ...............
    ...............
    ...............
    ...............
    ...............

u+02c9:
0x012d:
    ...............
    ...@@@@@@@@@...
    ...@@@@@@@@@...
    ...............
    ...............
    ...............
    ...............
    ...............
    ...............
    ...............
    ...............
    ...............
    ...............
    ...............
    ...............
    ...............
    ...............
    ...............
    ...............
    ...............
    ...............
    ...............
    ...............
    ...............
    ...............

u+02d8:
0x012e:
    ...@.......@...
    ...@@.....@@...
    ....@@@@@@@....
    .....@@@@@.....
    ...............
    ...............
    ...............
    ...............
    ...............
    ...............
    ...............
    ...............
    ...............
    ...............
    ...............
    ...............
    ...............
    ...............
    ...............
    ...............
    ...............
    ...............
    ...............
    ...............
    ...............

u+02d9:
0x012f:
    ......@@@......
    ......@@@......
    ......@@@......
    ...............
    ...............
    ...............
    ...............
    ...............
    ...............
    ...............
    ...............
    ...............
    ...............
    ...............
    ...............
    ...............
    ...............
    ...............
    ...............
    ...............
    ...............
    ...............
    ...............
    ...............
    ...............

u+02da:
0x0130:
    ......@@@......
    .....@@@@@.....
    ....@@...@@....
    ....@@...@@....
    ....@@...@@....
    .....@@@@@.....
    ......@@@......
    ...............
    ...............
    ...............
    ...............
    ...............
    ...............
    ...............
    ...............
    ...............
    ...............
    ...............
    ...............
    ...............
    ...............
    ...............
    ...............
    ...............
    ...............

u+02dd:
0x0131:
    .....@@...@@...
    ....@@@..@@@...
    ...@@...@@.....
    ..@@...@@......
    ...............
    ...............
    ...............
    ...............
    ...............
    ...............
    ...............
    ...............
    ...............
    ...............
    ...............
    ...............
    ...............
    ...............
    ...............
    ...............
    ...............
    ...............
    ...............
    ...............
    ...............

u+02db:
0x0132:
    ...............
    ...............
    ...............
    ...............
    ...............
    ...............
    ...............
    ...............
    ...............
    ...............
    ...............
    ...............
    ...............
    ...............
    ...............
    ...............
    ...............
    ...............
    ...............
    ...............
    ........@......
    ......@@.......
    .....@@........
    .....@@..@@....
    ......@@@@.....

u+02c7:
0x0133:
    ...@@....@@....
    ....@@..@@.....
    .....@@@@......
    ......@@.......
    ...............
    ...............
    ...............
    ...............
    ...............
    ...............
    ...............
    ...............
    ...............
    ...............
    ...............
    ...............
    ...............
    ...............
    ...............
    ...............
    ...............
    ...............
    ...............
    ...............
    ...............

u+2018:
0x0134:
    ........@@.....
    ........@@.....
    .......@@@.....
    .......@@@.....
    ......@@@......
    ......@@@......
    .....@@@@......
    ...............
    ...............
    ...............
    ...............
    ...............
    ...............
    ...............
    ...............
    ...............
    ...............
    ...............
    ...............
    ...............
    ...............
    ...............
    ...............
    ...............
    ...............

u+2019:
0x0135:
    ......@@@@.....
    ......@@@......
    ......@@@......
    .....@@@.......
    .....@@@.......
    .....@@........
    .....@@........
    ...............
    ...............
    ...............
    ...............
    ...............
    ...............
    ...............
    ...............
    ...............
    ...............
    ...............
    ...............
    ...............
    ...............
    ...............
    ...............
    ...............
    ...............

u+201c:
0x0136:
    .....@@....@@..
    .....@@....@@..
    ....@@@...@@@..
    ....@@@...@@@..
    ...@@@...@@@...
    ...@@@...@@@...
    ..@@@@..@@@@...
    ...............
    ...............
    ...............
    ...............
    ...............
    ...............
    ...............
    ...............
    ...............
    ...............
    ...............
    ...............
    ...............
    ...............
    ...............
    ...............
    ...............
    ...............

u+201d:
0x0137:
    ...@@@@..@@@@..
    ...@@@...@@@...
    ...@@@...@@@...
    ..@@@...@@@....
    ..@@@...@@@....
    ..@@....@@.....
    ..@@....@@.....
    ...............
    ...............
    ...............
    ...............
    ...............
    ...............
    ...............
    ...............
    ...............
    ...............
    ...............
    ...............
    ...............
    ...............
    ...............
    ...............
    ...............
    ...............

u+2013:
0x0138:
    ...............
    ...............
    ...............
    ...............
    ...............
    ...............
    ...............
    ...............
    ...............
    ...............
    ...............
    ...............
    ...............
    @@@@@@@@@@@@@@@
    @@@@@@@@@@@@@@@
    ...............
    ...............
    ...............
    ...............
    ...............
    ...............
    ...............
    ...............
    ...............
    ...............

u+2014:
0x0139:
    ...............
    ...............
    ...............
    ...............
    ...............
    ...............
    ...............
    ...............
    ...............
    ...............
    ...............
    ...............
    ...............
    @@@@@@@@@@@@@@@
    @@@@@@@@@@@@@@@
    ...............
    ...............
    ...............
    ...............
    ...............
    ...............
    ...............
    ...............
    ...............
    ...............

u+ffe5:
0x013a:
    ......@@.......
    .....@@@@......
    ....@@..@@.....
    ...@@....@@....
    ...............
    ...............
    ...............
    ...............
    ...............
    ...............
    ...............
    ...............
    ...............
    ...............
    ...............
    ...............
    ...............
    ...............
    ...............
    ...............
    ...............
    ...............
    ...............
    ...............
    ...............

u+0131:
0x013b:
    ...............
    ....@@@@@.@@...
    ...@@.@@@@@....
    ...............
    ...............
    ...............
    ...............
    ...............
    ...............
    ...............
    ...............
    ...............
    ...............
    ...............
    ...............
    ...............
    ...............
    ...............
    ...............
    ...............
    ...............
    ...............
    ...............
    ...............
    ...............

u+201a:
0x013c:
    ...............
    ...............
    ...............
    ...............
    ...............
    ...............
    ...............
    ...............
    ...............
    ...............
    ...............
    ...............
    ...............
    ...............
    ...............
    ...............
    ......@@@@.....
    ......@@@......
    ......@@@......
    .....@@@.......
    .....@@@.......
    .....@@........
    .....@@........
    ...............
    ...............

u+201e:
0x013d:
    ...............
    ...............
    ...............
    ...............
    ...............
    ...............
    ...............
    ...............
    ...............
    ...............
    ...............
    ...............
    ...............
    ...............
    ...............
    ...............
    ...@@@@..@@@@..
    ...@@@...@@@...
    ...@@@...@@@...
    ..@@@...@@@....
    ..@@@...@@@....
    ..@@....@@.....
    ..@@....@@.....
    ...............
    ...............

u+2026:
0x013e:
    ...............
    ...............
    ...............
    ...............
    ...............
    ...............
    ...............
    ...............
    ...............
    ...............
    ...............
    ...............
    ...............
    ...............
    ...............
    ...............
    ...............
    .@@@..@@@..@@@.
    .@@@..@@@..@@@.
    .@@@..@@@..@@@.
    ...............
    ...............
    ...............
    ...............
    ...............

u+2020:
0x013f:
    ...............
    ...............
    ...............
    ...............
    ...............
    ......@@.......
    ......@@.......
    ......@@.......
    ......@@.......
    ..@@@@@@@@@@...
    ..@@@@@@@@@@...
    ......@@.......
    ......@@.......
    ......@@.......
    ......@@.......
    ......@@.......
    ......@@.......
    ......@@.......
    ......@@.......
    ......@@.......
    ...............
    ...............
    ...............
    ...............
    ...............

u+2021:
0x0140:
    ...............
    ...............
    ...............
    ...............
    ...............
    ......@@.......
    ......@@.......
    ......@@.......
    ......@@.......
    ..@@@@@@@@@@...
    ..@@@@@@@@@@...
    ......@@.......
    ......@@.......
    ......@@.......
    ..@@@@@@@@@@...
    ..@@@@@@@@@@...
    ......@@.......
    ......@@.......
    ......@@.......
    ......@@.......
    ...............
    ...............
    ...............
    ...............
    ...............

u+02c6:
0x0141:
    ......@@.......
    .....@@@@......
    ....@@..@@.....
    ...@@....@@....
    ...............
    ...............
    ...............
    ...............
    ...............
    ...............
    ...............
    ...............
    ...............
    ...............
    ...............
    ...............
    ...............
    ...............
    ...............
    ...............
    ...............
    ...............
    ...............
    ...............
    ...............

u+2030:
0x0142:
    ...............
    ...............
    ...............
    ...............
    ...............
    .@@@@@.........
    @@@.@@@........
    @@...@@........
    @@...@@........
    @@@.@@@........
    .@@@@@...@@@...
    ......@@@@.....
    ..@@@@@........
    @@@............
    ...@@@@@.@@@@@.
    ..@@@.@@@@@.@@@
    ..@@...@@@...@@
    ..@@...@@@...@@
    ..@@@.@@@@@.@@@
    ...@@@@@.@@@@@.
    ...............
    ...............
    ...............
    ...............
    ...............

u+0160:
0x0143:
    ...............
    ....@@....@@...
    .....@@@@@@....
    .......@@......
    ...............
    .....@@@@.@@...
    ...@@@@@@@@@...
    ...@@....@@@...
    ..@@......@@...
    ..@@...........
    ..@@@..........
    ...@@@@@@@@....
    ....@@@@@@@@...
    ..........@@@..
    ...........@@..
    ..@@.......@@..
    ..@@.......@@..
    ..@@@.....@@...
    ..@@@@@@@@@@...
    ..@@.@@@@@.....
    ...............
    ...............
    ...............
    ...............
    ...............

u+2039:
0x0144:
    ...............
    ...............
    ...............
    ...............
    ...............
    ...............
    ...............
    ...............
    ...............
    ...............
    .......@.......
    ......@@.......
    ......@@.......
    .....@@........
    .....@@........
    .....@@........
    ......@@.......
    ......@@.......
    .......@.......
    ...............
    ...............
    ...............
    ...............
    ...............
    ...............

u+0152:
0x0145:
    ...............
    ...............
    ...............
    ...............
    ...............
    ....@@@@@@@@@@.
    ..@@@@@@@@@@@@.
    .@@@@.@@....@@.
    .@@...@@....@@.
    @@@...@@.@@.@@.
    @@....@@.@@....
    @@....@@@@@....
    @@....@@@@@....
    @@....@@.@@....
    @@....@@.@@....
    @@@...@@....@@.
    .@@...@@....@@.
    .@@@@.@@....@@.
    ..@@@@@@@@@@@@.
    ....@@@@@@@@@@.
    ...............
    ...............
    ...............
    ...............
    ...............

u+02dc:
0x0146:
    ...............
    ....@@@@@.@@...
    ...@@.@@@@@....
    ...............
    ...............
    ...............
    ...............
    ...............
    ...............
    ...............
    ...............
    ...............
    ...............
    ...............
    ...............
    ...............
    ...............
    ...............
    ...............
    ...............
    ...............
    ...............
    ...............
    ...............
    ...............

u+2122:
0x0147:
    ...............
    ...............
    ...............
    ...............
    ...............
    .@@@@@.@@@.@@@.
    .@.@.@..@@.@@..
    .@.@.@..@.@.@..
    ...@....@.@.@..
    ...@....@...@..
    ..@@@..@@@.@@@.
    ...............
    ...............
    ...............
    ...............
    ...............
    ...............
    ...............
    ...............
    ...............
    ...............
    ...............
    ...............
    ...............
    ...............

u+0161:
0x0148:
    ...............
    ...............
    ...............
    ....@@....@@...
    .....@@..@@....
    ......@@@@.....
    .......@@......
    ...............
    ....@@@@@.@@...
    ...@@@@@@@@@...
    ..@@@....@@@...
    ..@@......@@...
    ..@@...........
    ...@@@@@@@@....
    ....@@@@@@@@...
    ...........@@..
    ..@@.......@@..
    ..@@@.....@@@..
    ..@@@@@@@@@@...
    ..@@.@@@@@@....
    ...............
    ...............
    ...............
    ...............
    ...............

u+203a:
0x0149:
    ...............
    ...............
    ...............
    ...............
    ...............
    ...............
    ...............
    ...............
    ...............
    ...............
    ......@........
    ......@@.......
    ......@@.......
    .......@@......
    .......@@......
    .......@@......
    ......@@.......
    ......@@.......
    ......@........
    ...............
    ...............
    ...............
    ...............
    ...............
    ...............

u+0153:
0x014a:
    ...............
    ...............
    ...............
    ...............
    ...............
    ...............
    ...............
    ...............
    ..@@@@..@@@@...
    .@@@@@@@@@@@@..
    .@@..@@@@..@@..
    @@....@@....@@.
    @@....@@....@@.
    @@....@@@@@@@@.
    @@....@@@@@@@@.
    @@....@@.......
    @@....@@.......
    .@@..@@@@...@..
    .@@@@@@@@@@@@@.
    ..@@@@..@@@@@..
    ...............
    ...............
    ...............
    ...............
    ...............

u+0178:
0x014b:
    ...............
    ...@@@...@@@...
    ...@@@...@@@...
    ...@@@...@@@...
    ...............
    @@@@@@..@@@@@@.
    @@@@@@..@@@@@@.
    ..@@......@@...
    ...@@....@@....
    ...@@....@@....
    ....@@..@@.....
    ....@@..@@.....
    .....@@@@......
    .....@@@@......
    ......@@.......
    ......@@.......
    ......@@.......
    ......@@.......
    ...@@@@@@@@....
    ...@@@@@@@@....
    ...............
    ...............
    ...............
    ...............
    ...............

u+011f:
0x014c:
    ...............
    ...............
    ...@.......@...
    ...@@.....@@...
    ....@@@@@@@....
    .....@@@@@.....
    ...............
    ...............
    ....@@@@@.@@@@.
    ..@@@@@@@@@@@@.
    ..@@.....@@@...
    .@@.......@@...
    .@@.......@@...
    .@@.......@@...
    .@@.......@@...
    .@@.......@@...
    ..@@.....@@@...
    ..@@@@@@@@@@...
    ....@@@@@.@@...
    ..........@@...
    ..........@@...
    ..........@@...
    .........@@....
    ...@@@@@@@@....
    ...@@@@@@......

u+011e:
0x014d:
    ....@.......@..
    ....@@.....@@..
    .....@@@@@@@...
    ......@@@@@....
    ...............
    .....@@@@@.@@..
    ...@@@@@@@@@@..
    ..@@@@...@@@@..
    ..@@.......@@..
    .@@@.......@@..
    .@@............
    .@@............
    .@@............
    .@@....@@@@@@@.
    .@@....@@@@@@@.
    .@@@.......@@..
    ..@@.......@@..
    ..@@@@....@@@..
    ...@@@@@@@@@@..
    .....@@@@@@....
    ...............
    ...............
    ...............
    ...............
    ...............

u+0130:
0x014e:
    ...............
    ...............
    ......@@.......
    ......@@.......
    ...............
    ..@@@@@@@@@@...
    ..@@@@@@@@@@...
    ......@@.......
    ......@@.......
    ......@@.......
    ......@@.......
    ......@@.......
    ......@@.......
    ......@@.......
    ......@@.......
    ......@@.......
    ......@@.......
    ......@@.......
    ..@@@@@@@@@@...
    ..@@@@@@@@@@...
    ...............
    ...............
    ...............
    ...............
    ...............

u+015f:
0x014f:
    ...............
    ...............
    ...............
    ...............
    ...............
    ...............
    ...............
    ...............
    ....@@@@@.@@...
    ...@@@@@@@@@...
    ..@@@....@@@...
    ..@@......@@...
    ..@@...........
    ...@@@@@@@@....
    ....@@@@@@@@...
    ...........@@..
    ..@@.......@@..
    ..@@@.....@@@..
    ..@@@@@@@@@@...
    ..@@.@@@@@@....
    .......@.......
    .......@@@.....
    .........@@....
    .....@@..@@....
    ......@@@@.....

u+015e:
0x0150:
    ...............
    ...............
    ...............
    ...............
    ...............
    .....@@@@.@@...
    ...@@@@@@@@@...
    ...@@....@@@...
    ..@@......@@...
    ..@@...........
    ..@@@..........
    ...@@@@@@@@....
    ....@@@@@@@@...
    ..........@@@..
    ...........@@..
    ..@@.......@@..
    ..@@.......@@..
    ..@@@.....@@...
    ..@@@@@@@@@@...
    ..@@.@@@@@.....
    .......@.......
    .......@@@.....
    .........@@....
    .....@@..@@....
    ......@@@@.....

u+0103:
0x0151:
    ...............
    ...............
    ...............
    ...@.......@...
    ...@@.....@@...
    ....@@@@@@@....
    .....@@@@@.....
    ...............
    ....@@@@@@.....
    ..@@@@@@@@@....
    ...@.....@@@...
    ..........@@...
    ....@@@@@.@@...
    ..@@@@@@@@@@...
    ..@@.....@@@...
    .@@.......@@...
    .@@.......@@...
    ..@@....@@@@...
    ..@@@@@@@@@@@@.
    ....@@@@..@@@@.
    ...............
    ...............
    ...............
    ...............
    ...............

u+0102:
0x0152:
    ...@.......@...
    ...@@.....@@...
    ....@@@@@@@....
    .....@@@@@.....
    ...............
    ...@@@@@@......
    ...@@@@@@......
    .....@@@@@.....
    .....@@.@@.....
    ....@@..@@.....
    ....@@...@@....
    ....@@...@@....
    ...@@.....@@...
    ...@@@@@@@@@...
    ...@@@@@@@@@...
    ...@@.....@@...
    ..@@.......@@..
    ..@@.......@@..
    @@@@@@...@@@@@@
    @@@@@@...@@@@@@
    ...............
    ...............
    ...............
    ...............
    ...............

u+0105:
0x0153:
    ...............
    ...............
    ...............
    ...............
    ...............
    ...............
    ...............
    ...............
    ....@@@@@@.....
    ..@@@@@@@@@....
    ...@.....@@@...
    ..........@@...
    ....@@@@@.@@...
    ..@@@@@@@@@@...
    ..@@.....@@@...
    .@@.......@@...
    .@@.......@@...
    ..@@....@@@@...
    ..@@@@@@@@@@@@.
    ....@@@@..@@@@.
    ...........@...
    .........@@@...
    ........@@.....
    ........@@..@@.
    .........@@@@..

u+0104:
0x0154:
    ...............
    ...............
    ...............
    ...............
    ...............
    ...@@@@@@......
    ...@@@@@@......
    .....@@@@@.....
    .....@@.@@.....
    ....@@..@@.....
    ....@@...@@....
    ....@@...@@....
    ...@@.....@@...
    ...@@@@@@@@@...
    ...@@@@@@@@@...
    ...@@.....@@...
    ..@@.......@@..
    ..@@.......@@..
    @@@@@@...@@@@@@
    @@@@@@...@@@@@@
    ...........@...
    .........@@@...
    ........@@.....
    ........@@..@@.
    .........@@@@..

u+0107:
0x0155:
    ...............
    ...............
    ...............
    .........@@....
    ........@@@....
    ......@@@......
    .....@@........
    ...............
    .....@@@@..@@..
    ...@@@@@@@@@@..
    ..@@@....@@@@..
    ..@@.......@@..
    .@@........@@..
    .@@............
    .@@............
    .@@............
    ..@@.......@...
    ..@@@.....@@@..
    ...@@@@@@@@@...
    .....@@@@@.....
    ...............
    ...............
    ...............
    ...............
    ...............

u+0106:
0x0156:
    .........@@....
    ........@@@....
    ......@@@......
    .....@@........
    ...............
    .....@@@@@.@@..
    ...@@@@@@@@@@..
    ..@@@@...@@@@..
    ..@@.......@@..
    .@@@.......@@..
    .@@............
    .@@............
    .@@............
    .@@............
    .@@............
    .@@@...........
    ..@@........@..
    ..@@@@....@@@@.
    ...@@@@@@@@@@..
    .....@@@@@@....
    ...............
    ...............
    ...............
    ...............
    ...............

u+010d:
0x0157:
    ...............
    ...............
    ....@@....@@...
    .....@@..@@....
    ......@@@@.....
    .......@@......
    ...............
    ...............
    .....@@@@..@@..
    ...@@@@@@@@@@..
    ..@@@....@@@@..
    ..@@.......@@..
    .@@........@@..
    .@@............
    .@@............
    .@@............
    ..@@.......@...
    ..@@@.....@@@..
    ...@@@@@@@@@...
    .....@@@@@.....
    ...............
    ...............
    ...............
    ...............
    ...............

u+010c:
0x0158:
    ....@@....@@...
    .....@@..@@....
    ......@@@@.....
    .......@@......
    ...............
    .....@@@@@.@@..
    ...@@@@@@@@@@..
    ..@@@@...@@@@..
    ..@@.......@@..
    .@@@.......@@..
    .@@............
    .@@............
    .@@............
    .@@............
    .@@............
    .@@@...........
    ..@@........@..
    ..@@@@....@@@@.
    ...@@@@@@@@@@..
    .....@@@@@@....
    ...............
    ...............
    ...............
    ...............
    ...............

u+010f:
0x0159:
    ...............
    ..@@....@@.....
    ...@@..@@......
    ....@@@@.......
    .....@@.@@@@...
    ........@@@@...
    ..........@@...
    ..........@@...
    .....@@@@.@@...
    ...@@@@@@@@@...
    ..@@@....@@@...
    ..@@......@@...
    .@@.......@@...
    .@@.......@@...
    .@@.......@@...
    .@@.......@@...
    ..@@......@@...
    ..@@@....@@@...
    ...@@@@@@@@@@@.
    .....@@@@.@@@@.
    ...............
    ...............
    ...............
    ...............
    ...............

u+010e:
0x015a:
    ..@@....@@.....
    ...@@..@@......
    ....@@@@.......
    .....@@........
    ...............
    @@@@@@@@@......
    @@@@@@@@@@@....
    ..@@....@@@@...
    ..@@......@@...
    ..@@......@@@..
    ..@@.......@@..
    ..@@.......@@..
    ..@@.......@@..
    ..@@.......@@..
    ..@@.......@@..
    ..@@......@@@..
    ..@@......@@...
    ..@@....@@@@...
    @@@@@@@@@@@....
    @@@@@@@@@......
    ...............
    ...............
    ...............
    ...............
    ...............

u+0111:
0x015b:
    ...............
    ...............
    ...............
    ...............
    ........@@@@...
    ........@@@@...
    ..........@@...
    ........@@@@@@.
    .....@@@@.@@...
    ...@@@@@@@@@...
    ..@@@....@@@...
    ..@@......@@...
    .@@.......@@...
    .@@.......@@...
    .@@.......@@...
    .@@.......@@...
    ..@@......@@...
    ..@@@....@@@...
    ...@@@@@@@@@@@.
    .....@@@@.@@@@.
    ...............
    ...............
    ...............
    ...............
    ...............

u+011b:
0x015c:
    ...............
    ...............
    ...............
    ...@@....@@....
    ....@@..@@.....
    .....@@@@......
    ......@@.......
    ...............
    .....@@@@......
    ...@@@@@@@@....
    ..@@@....@@@...
    ..@@......@@...
    .@@........@@..
    .@@@@@@@@@@@@..
    .@@@@@@@@@@@@..
    .@@............
    ..@@...........
    ..@@@.....@@...
    ...@@@@@@@@@@..
    .....@@@@@@....
    ...............
    ...............
    ...............
    ...............
    ...............

u+011a:
0x015d:
    ....@@....@@...
    .....@@..@@....
    ......@@@@.....
    .......@@......
    ...............
    .@@@@@@@@@@@@..
    .@@@@@@@@@@@@..
    ...@@......@@..
    ...@@......@@..
    ...@@...@@.@@..
    ...@@...@@.....
    ...@@@@@@@.....
    ...@@@@@@@.....
    ...@@...@@.....
    ...@@...@@.....
    ...@@......@@..
    ...@@......@@..
    ...@@......@@..
    .@@@@@@@@@@@@..
    .@@@@@@@@@@@@..
    ...............
    ...............
    ...............
    ...............
    ...............

u+0119:
0x015e:
    ...............
    ...............
    ...............
    ...............
    ...............
    ...............
    ...............
    ...............
    .....@@@@......
    ...@@@@@@@@....
    ..@@@....@@@...
    ..@@......@@...
    .@@........@@..
    .@@@@@@@@@@@@..
    .@@@@@@@@@@@@..
    .@@............
    ..@@...........
    ..@@@.....@@...
    ...@@@@@@@@@@..
    .....@@@@@@....
    .......@.......
    .....@@@.......
    ....@@.........
    ....@@..@@.....
    .....@@@@......

u+0118:
0x015f:
    ...............
    ...............
    ...............
    ...............
    ...............
    .@@@@@@@@@@@@..
    .@@@@@@@@@@@@..
    ...@@......@@..
    ...@@......@@..
    ...@@...@@.@@..
    ...@@...@@.....
    ...@@@@@@@.....
    ...@@@@@@@.....
    ...@@...@@.....
    ...@@...@@.....
    ...@@......@@..
    ...@@......@@..
    ...@@......@@..
    .@@@@@@@@@@@@..
    .@@@@@@@@@@@@..
    ........@......
    ......@@@......
    .....@@........
    .....@@..@@....
    ......@@@@.....

u+013a:
0x0160:
    ......@@@......
    ....@@@........
    ...@@..........
    ...............
    ..@@@@@@.......
    ..@@@@@@.......
    ......@@.......
    ......@@.......
    ......@@.......
    ......@@.......
    ......@@.......
    ......@@.......
    ......@@.......
    ......@@.......
    ......@@.......
    ......@@.......
    ......@@.......
    ......@@.......
    ..@@@@@@@@@@...
    ..@@@@@@@@@@...
    ...............
    ...............
    ...............
    ...............
    ...............

u+0139:
0x0161:
    ......@@.......
    .....@@@.......
    ...@@@.........
    ..@@...........
    ...............
    .@@@@@@@@......
    .@@@@@@@@......
    ....@@.........
    ....@@.........
    ....@@.........
    ....@@.........
    ....@@.........
    ....@@.........
    ....@@.........
    ....@@......@@.
    ....@@......@@.
    ....@@......@@.
    ....@@......@@.
    .@@@@@@@@@@@@@.
    .@@@@@@@@@@@@@.
    ...............
    ...............
    ...............
    ...............
    ...............

u+013e:
0x0162:
    ...@@..@@......
    ....@@@@.......
    .....@@........
    ...............
    ..@@@@@@.......
    ..@@@@@@.......
    ......@@.......
    ......@@.......
    ......@@.......
    ......@@.......
    ......@@.......
    ......@@.......
    ......@@.......
    ......@@.......
    ......@@.......
    ......@@.......
    ......@@.......
    ......@@.......
    ..@@@@@@@@@@...
    ..@@@@@@@@@@...
    ...............
    ...............
    ...............
    ...............
    ...............

u+013d:
0x0163:
    ..@@....@@.....
    ...@@..@@......
    ....@@@@.......
    .....@@........
    ...............
    .@@@@@@@@......
    .@@@@@@@@......
    ....@@.........
    ....@@.........
    ....@@.........
    ....@@.........
    ....@@.........
    ....@@.........
    ....@@.........
    ....@@......@@.
    ....@@......@@.
    ....@@......@@.
    ....@@......@@.
    .@@@@@@@@@@@@@.
    .@@@@@@@@@@@@@.
    ...............
    ...............
    ...............
    ...............
    ...............

u+0142:
0x0164:
    ...............
    ...............
    ...............
    ...............
    ..@@@@@@.......
    ..@@@@@@.......
    ......@@.......
    ......@@.......
    ......@@.......
    ......@@.@@....
    ......@@@@@....
    .....@@@@......
    ...@@@@@.......
    ...@@.@@.......
    ......@@.......
    ......@@.......
    ......@@.......
    ......@@.......
    ..@@@@@@@@@@...
    ..@@@@@@@@@@...
    ...............
    ...............
    ...............
    ...............
    ...............

u+0141:
0x0165:
    ...............
    ...............
    ...............
    ...............
    ...............
    .@@@@@@@@......
    .@@@@@@@@......
    ....@@.........
    ....@@.........
    ....@@.........
    ....@@.@@......
    ....@@@@@......
    ...@@@@........
    .@@@@@.........
    .@@.@@......@@.
    ....@@......@@.
    ....@@......@@.
    ....@@......@@.
    .@@@@@@@@@@@@@.
    .@@@@@@@@@@@@@.
    ...............
    ...............
    ...............
    ...............
    ...............

u+0144:
0x0166:
    ...............
    ...............
    ...............
    .......@@......
    ......@@@......
    ....@@@........
    ...@@..........
    ...............
    @@@@..@@@@.....
    @@@@@@@@@@@....
    ..@@@@...@@@...
    ..@@......@@...
    ..@@......@@...
    ..@@......@@...
    ..@@......@@...
    ..@@......@@...
    ..@@......@@...
    ..@@......@@...
    @@@@@@..@@@@@@.
    @@@@@@..@@@@@@.
    ...............
    ...............
    ...............
    ...............
    ...............

u+0143:
0x0167:
    ........@@.....
    .......@@@.....
    .....@@@.......
    ....@@.........
    ...............
    @@@@....@@@@@@@
    @@@@@...@@@@@@@
    ..@@@......@@..
    ..@@@@.....@@..
    ..@@.@@....@@..
    ..@@.@@....@@..
    ..@@..@@...@@..
    ..@@...@@..@@..
    ..@@...@@..@@..
    ..@@....@@.@@..
    ..@@.....@.@@..
    ..@@.....@@@@..
    ..@@......@@@..
    @@@@@@@...@@@..
    @@@@@@@....@@..
    ...............
    ...............
    ...............
    ...............
    ...............

u+0148:
0x0168:
    ...............
    ...............
    ...............
    ..@@....@@.....
    ...@@..@@......
    ....@@@@.......
    .....@@........
    ...............
    @@@@..@@@@.....
    @@@@@@@@@@@....
    ..@@@@...@@@...
    ..@@......@@...
    ..@@......@@...
    ..@@......@@...
    ..@@......@@...
    ..@@......@@...
    ..@@......@@...
    ..@@......@@...
    @@@@@@..@@@@@@.
    @@@@@@..@@@@@@.
    ...............
    ...............
    ...............
    ...............
    ...............

u+0147:
0x0169:
    ...@@....@@....
    ....@@..@@.....
    .....@@@@......
    ......@@.......
    ...............
    @@@@....@@@@@@@
    @@@@@...@@@@@@@
    ..@@@......@@..
    ..@@@@.....@@..
    ..@@.@@....@@..
    ..@@.@@....@@..
    ..@@..@@...@@..
    ..@@...@@..@@..
    ..@@...@@..@@..
    ..@@....@@.@@..
    ..@@.....@.@@..
    ..@@.....@@@@..
    ..@@......@@@..
    @@@@@@@...@@@..
    @@@@@@@....@@..
    ...............
    ...............
    ...............
    ...............
    ...............

u+0151:
0x016a:
    ...............
    ...............
    ...............
    ......@@...@@..
    .....@@@..@@@..
    ...@@@..@@@....
    ..@@...@@......
    ...............
    .....@@@@......
    ...@@@@@@@@....
    ..@@@....@@@...
    ..@@......@@...
    .@@........@@..
    .@@........@@..
    .@@........@@..
    .@@........@@..
    ..@@......@@...
    ..@@@....@@@...
    ...@@@@@@@@....
    .....@@@@......
    ...............
    ...............
    ...............
    ...............
    ...............

u+0150:
0x016b:
    ......@@....@@.
    .....@@@...@@@.
    ...@@@...@@@...
    ..@@....@@.....
    ...............
    ....@@@@@@.....
    ..@@@@@@@@@@...
    .@@@@....@@@@..
    .@@........@@..
    @@@........@@@.
    @@..........@@.
    @@..........@@.
    @@..........@@.
    @@..........@@.
    @@..........@@.
    @@@........@@@.
    .@@........@@..
    .@@@@....@@@@..
    ..@@@@@@@@@@...
    ....@@@@@@.....
    ...............
    ...............
    ...............
    ...............
    ...............

u+0155:
0x016c:
    ...............
    ...............
    ...............
    ........@@.....
    .......@@@.....
    .....@@@.......
    ....@@.........
    ...............
    ..@@@@..@@@@@..
    ..@@@@.@@@@@@@.
    ....@@@@@..@@..
    ....@@@........
    ....@@.........
    ....@@.........
    ....@@.........
    ....@@.........
    ....@@.........
    ....@@.........
    ..@@@@@@@@.....
    ..@@@@@@@@.....
    ...............
    ...............
    ...............
    ...............
    ...............

u+0154:
0x016d:
    .......@@......
    ......@@@......
    ....@@@........
    ...@@..........
    ...............
    @@@@@@@@@......
    @@@@@@@@@@@....
    ..@@.....@@....
    ..@@......@@...
    ..@@......@@...
    ..@@......@@...
    ..@@.....@@....
    ..@@@@@@@@@....
    ..@@@@@@@......
    ..@@...@@@.....
    ..@@....@@@....
    ..@@.....@@....
    ..@@.....@@@...
    @@@@@@....@@@@.
    @@@@@@....@@@@.
    ...............
    ...............
    ...............
    ...............
    ...............

u+0159:
0x016e:
    ...............
    ...............
    ...............
    ...@@....@@....
    ....@@..@@.....
    .....@@@@......
    ......@@.......
    ...............
    ..@@@@..@@@@@..
    ..@@@@.@@@@@@@.
    ....@@@@@..@@..
    ....@@@........
    ....@@.........
    ....@@.........
    ....@@.........
    ....@@.........
    ....@@.........
    ....@@.........
    ..@@@@@@@@.....
    ..@@@@@@@@.....
    ...............
    ...............
    ...............
    ...............
    ...............

u+0158:
0x016f:
    ..@@....@@.....
    ...@@..@@......
    ....@@@@.......
    .....@@........
    ...............
    @@@@@@@@@......
    @@@@@@@@@@@....
    ..@@.....@@....
    ..@@......@@...
    ..@@......@@...
    ..@@......@@...
    ..@@.....@@....
    ..@@@@@@@@@....
    ..@@@@@@@......
    ..@@...@@@.....
    ..@@....@@@....
    ..@@.....@@....
    ..@@.....@@@...
    @@@@@@....@@@@.
    @@@@@@....@@@@.
    ...............
    ...............
    ...............
    ...............
    ...............

u+015b:
0x0170:
    ...............
    ...............
    ...............
    .........@@....
    ........@@@....
    ......@@@......
    .....@@........
    ...............
    ....@@@@@.@@...
    ...@@@@@@@@@...
    ..@@@....@@@...
    ..@@......@@...
    ..@@...........
    ...@@@@@@@@....
    ....@@@@@@@@...
    ...........@@..
    ..@@.......@@..
    ..@@@.....@@@..
    ..@@@@@@@@@@...
    ..@@.@@@@@@....
    ...............
    ...............
    ...............
    ...............
    ...............

u+015a:
0x0171:
    ..........@@...
    .........@@@...
    .......@@@.....
    ......@@.......
    ...............
    .....@@@@.@@...
    ...@@@@@@@@@...
    ...@@....@@@...
    ..@@......@@...
    ..@@...........
    ..@@@..........
    ...@@@@@@@@....
    ....@@@@@@@@...
    ..........@@@..
    ...........@@..
    ..@@.......@@..
    ..@@.......@@..
    ..@@@.....@@...
    ..@@@@@@@@@@...
    ..@@.@@@@@.....
    ...............
    ...............
    ...............
    ...............
    ...............

u+0165:
0x0172:
    ...@@....@@....
    ....@@..@@.....
    .....@@@@......
    ......@@.......
    ...............
    ....@@.........
    ....@@.........
    ....@@.........
    .@@@@@@@@@@@...
    .@@@@@@@@@@@...
    ....@@.........
    ....@@.........
    ....@@.........
    ....@@.........
    ....@@.........
    ....@@.........
    ....@@......@..
    ....@@@....@@@.
    .....@@@@@@@@..
    ......@@@@@....
    ...............
    ...............
    ...............
    ...............
    ...............

u+0164:
0x0173:
    ...@@....@@....
    ....@@..@@.....
    .....@@@@......
    ......@@.......
    ...............
    .@@@@@@@@@@@@..
    .@@@@@@@@@@@@..
    .@@...@@...@@..
    .@@...@@...@@..
    .@@...@@...@@..
    .@@...@@...@@..
    ......@@.......
    ......@@.......
    ......@@.......
    ......@@.......
    ......@@.......
    ......@@.......
    ......@@.......
    ...@@@@@@@@....
    ...@@@@@@@@....
    ...............
    ...............
    ...............
    ...............
    ...............

u+0163:
0x0174:
    ...............
    ...............
    ...............
    ...............
    ...............
    ....@@.........
    ....@@.........
    ....@@.........
    .@@@@@@@@@@@...
    .@@@@@@@@@@@...
    ....@@.........
    ....@@.........
    ....@@.........
    ....@@.........
    ....@@.........
    ....@@.........
    ....@@......@..
    ....@@@....@@@.
    .....@@@@@@@@..
    ......@@@@@....
    ........@......
    ......@@@......
    .....@@........
    .....@@..@@....
    ......@@@@.....

u+0162:
0x0175:
    ...............
    ...............
    ...............
    ...............
    ...............
    .@@@@@@@@@@@@..
    .@@@@@@@@@@@@..
    .@@...@@...@@..
    .@@...@@...@@..
    .@@...@@...@@..
    .@@...@@...@@..
    ......@@.......
    ......@@.......
    ......@@.......
    ......@@.......
    ......@@.......
    ......@@.......
    ......@@.......
    ...@@@@@@@@....
    ...@@@@@@@@....
    .......@.......
    .....@@@.......
    ....@@.........
    ....@@...@@....
    ......@@@@.....

u+0171:
0x0176:
    ...............
    ...............
    ...............
    .....@@....@@..
    ....@@@...@@@..
    ..@@@...@@@....
    .@@....@@......
    ...............
    @@@@...@@@@@...
    @@@@...@@@@@...
    ..@@......@@...
    ..@@......@@...
    ..@@......@@...
    ..@@......@@...
    ..@@......@@...
    ..@@......@@...
    ..@@......@@...
    ..@@@...@@@@...
    ...@@@@@@@@@@@.
    ....@@@@..@@@@.
    ...............
    ...............
    ...............
    ...............
    ...............

u+0170:
0x0177:
    ......@@....@@.
    .....@@@...@@@.
    ...@@@...@@@...
    ..@@....@@.....
    ...............
    @@@@@@...@@@@@@
    @@@@@@...@@@@@@
    ..@@.......@@..
    ..@@.......@@..
    ..@@.......@@..
    ..@@.......@@..
    ..@@.......@@..
    ..@@.......@@..
    ..@@.......@@..
    ..@@.......@@..
    ..@@.......@@..
    ..@@.......@@..
    ...@@.....@@...
    ...@@@@@@@@@...
    .....@@@@@.....
    ...............
    ...............
    ...............
    ...............
    ...............

u+016f:
0x0178:
    .....@@@.......
    ....@@@@@......
    ...@@...@@.....
    ...@@...@@.....
    ...@@...@@.....
    ....@@@@@......
    .....@@@.......
    ...............
    @@@@...@@@@@...
    @@@@...@@@@@...
    ..@@......@@...
    ..@@......@@...
    ..@@......@@...
    ..@@......@@...
    ..@@......@@...
    ..@@......@@...
    ..@@......@@...
    ..@@@...@@@@...
    ...@@@@@@@@@@@.
    ....@@@@..@@@@.
    ...............
    ...............
    ...............
    ...............
    ...............

u+016e:
0x0179:
    ......@@@......
    .....@@@@@.....
    ....@@...@@....
    ....@@...@@....
    .....@@@@@.....
    @@@@@@@@@@@@@@@
    @@@@@@...@@@@@@
    ..@@.......@@..
    ..@@.......@@..
    ..@@.......@@..
    ..@@.......@@..
    ..@@.......@@..
    ..@@.......@@..
    ..@@.......@@..
    ..@@.......@@..
    ..@@.......@@..
    ..@@.......@@..
    ...@@.....@@...
    ...@@@@@@@@@...
    .....@@@@@.....
    ...............
    ...............
    ...............
    ...............
    ...............

u+017a:
0x017a:
    ...............
    ...............
    ...............
    .......@@......
    ......@@@......
    ....@@@........
    ...@@..........
    ...............
    ..@@@@@@@@@@...
    ..@@@@@@@@@@...
    ..@@.....@@....
    ..@@....@@.....
    .......@@......
    ......@@.......
    ......@@.......
    .....@@........
    ....@@....@@...
    ...@@.....@@...
    ..@@@@@@@@@@...
    ..@@@@@@@@@@...
    ...............
    ...............
    ...............
    ...............
    ...............

u+0179:
0x017b:
    .........@@....
    ........@@@....
    ......@@@......
    .....@@........
    ...............
    ..@@@@@@@@@@...
    ..@@@@@@@@@@...
    ..@@.....@@@...
    ..@@....@@@....
    ..@@....@@.....
    .......@@......
    .......@@......
    ......@@.......
    .....@@........
    .....@@........
    ....@@....@@...
    ...@@@....@@...
    ..@@@.....@@...
    ..@@@@@@@@@@...
    ..@@@@@@@@@@...
    ...............
    ...............
    ...............
    ...............
    ...............

u+017e:
0x017c:
    ...............
    ...............
    ...............
    ...@@....@@....
    ....@@..@@.....
    .....@@@@......
    ......@@.......
    ...............
    ..@@@@@@@@@@...
    ..@@@@@@@@@@...
    ..@@.....@@....
    ..@@....@@.....
    .......@@......
    ......@@.......
    ......@@.......
    .....@@........
    ....@@....@@...
    ...@@.....@@...
    ..@@@@@@@@@@...
    ..@@@@@@@@@@...
    ...............
    ...............
    ...............
    ...............
    ...............

u+017d:
0x017d:
    ...@@....@@....
    ....@@..@@.....
    .....@@@@......
    ......@@.......
    ...............
    ..@@@@@@@@@@...
    ..@@@@@@@@@@...
    ..@@.....@@@...
    ..@@....@@@....
    ..@@....@@.....
    .......@@......
    .......@@......
    ......@@.......
    .....@@........
    .....@@........
    ....@@....@@...
    ...@@@....@@...
    ..@@@.....@@...
    ..@@@@@@@@@@...
    ..@@@@@@@@@@...
    ...............
    ...............
    ...............
    ...............
    ...............

u+017c:
0x017e:
    ...............
    ...............
    ...............
    ...............
    ......@@@......
    ......@@@......
    ......@@@......
    ...............
    ..@@@@@@@@@@...
    ..@@@@@@@@@@...
    ..@@.....@@....
    ..@@....@@.....
    .......@@......
    ......@@.......
    ......@@.......
    .....@@........
    ....@@....@@...
    ...@@.....@@...
    ..@@@@@@@@@@...
    ..@@@@@@@@@@...
    ...............
    ...............
    ...............
    ...............
    ...............

